<?xml version="1.0" encoding="UTF-8"?>
<svg id="Capa_2" data-name="Capa 2" xmlns="http://www.w3.org/2000/svg" viewBox="0 0 191.13 179.95">
  <defs>
    <style>
      .cls-1 {
        fill: #6a49c4;
      }
    </style>
  </defs>
  <g id="Capa_2-2" data-name="Capa 2">
    <g>
      <path class="cls-1" d="m37.03,133.91c.73-1.48,1.41-2.87,2.08-4.26,5.58-11.46,11.16-22.91,16.73-34.38.21-.44.37-.95.39-1.44.29-7.33.55-14.65.8-21.98.01-.36-.1-.82-.32-1.09-5.46-6.45-10.95-12.87-16.43-19.3-.04-.05-.12-.07-.43-.34-1.22,1.31-2.42,2.65-3.68,3.92-3.15,3.19-6.33,6.34-9.49,9.51-3.92,3.94-9.64,5.1-14.69,2.97-5.02-2.12-8.22-7.07-8.05-12.63.11-3.59,1.53-6.63,4.08-9.17,12.55-12.53,25.08-25.07,37.62-37.61,1.35-1.35,2.7-2.71,4.06-4.06,5.31-5.29,13.61-5.42,18.81-.31,5.31,5.22,5.33,13.54,0,18.96-4.03,4.09-8.11,8.13-12.17,12.18-.33.33-.73.58-1.23.97,5.39,4.58,10.58,8.98,16.03,13.61,0-1.09,0-1.89,0-2.69,0-.83,0-1.66,0-2.49.04-2.32,1.41-3.7,3.74-3.7,6.5,0,13,0,19.5,0,7.04,0,14.09,0,21.13,0,2.75,0,4.06,1.3,4.07,4.03,0,1.5,0,3.01,0,4.84,5.35-4.54,10.48-8.89,15.75-13.36-1.99-1.95-3.9-3.81-5.79-5.68-2.54-2.52-5.07-5.05-7.59-7.58-5.38-5.39-5.49-13.67-.25-18.96,5.21-5.26,13.56-5.2,18.96.18,12.76,12.73,25.49,25.48,38.23,38.22,1.2,1.2,2.43,2.37,3.6,3.6,3.7,3.9,4.9,8.48,3.23,13.59-1.65,5.04-5.27,8.05-10.49,8.9-4.6.75-8.53-.75-11.8-4.06-3.97-4-7.96-7.97-11.93-11.96-.3-.3-.52-.7-.85-1.14-1.88,2.2-3.57,4.17-5.26,6.14-3.77,4.42-7.55,8.84-11.29,13.3-.33.39-.56,1.02-.55,1.53.15,7,.35,14.01.57,21.01.02.62.2,1.29.48,1.85,6.29,12.84,12.6,25.67,18.91,38.5.09.19.22.36.38.63,1.85-1.06,3.65-2.1,5.46-3.14,3.97-2.29,7.92-4.63,11.92-6.86,4.58-2.56,9.24-2.51,13.68.26,4.37,2.73,6.45,6.85,6.16,12-.27,4.65-2.5,8.28-6.53,10.62-15.83,9.19-31.7,18.32-47.55,27.47-1.34.78-2.68,1.57-4.03,2.33-6.5,3.64-14.52,1.45-18.15-4.93-3.63-6.39-1.39-14.38,5.06-18.11,5.13-2.96,10.25-5.92,15.38-8.89.22-.12.43-.26.78-.48-6.09-9.59-12.16-19.14-18.22-28.67-.14.03-.24.02-.27.06-3.14,4.74-7.8,7.22-13.13,8.51-8.49,2.06-16.77,1.55-24.66-2.51-2.51-1.29-4.61-3.09-6.22-5.44-.1-.14-.23-.27-.43-.51-6.3,9.77-12.55,19.46-18.86,29.23,2.46,1.6,4.85,3.16,7.23,4.71,2.94,1.91,5.89,3.8,8.81,5.72,5.12,3.37,7.31,9.53,5.45,15.27-1.85,5.73-7.28,9.42-13.41,9.1-2.32-.12-4.46-.85-6.41-2.11-16.66-10.81-33.32-21.61-49.96-32.46-6.13-3.99-7.81-12.12-3.89-18.24,3.91-6.1,11.99-7.93,18.19-4.02,5.13,3.24,10.19,6.59,15.28,9.89.45.29.9.57,1.45.91Zm41.03-86.39c-.02.39-.05.64-.05.88,0,13.9,0,27.8,0,41.7,0,.54.05,1.09.17,1.61.7,3.09,2.88,4.93,5.56,6.24,4.47,2.19,9.24,2.73,14.14,2.36,3.71-.28,7.29-1.11,10.48-3.13,2.84-1.8,4.42-4.26,4.4-7.79-.07-13.54-.03-27.08-.03-40.61,0-.42,0-.83,0-1.26h-34.68Zm-6.91,34.96c0-7.62-.01-15.24.02-22.86,0-.84-.26-1.38-.9-1.92-8.11-6.85-16.2-13.72-24.28-20.6-1.61-1.36-3.5-1.39-4.86-.02-1.36,1.37-1.35,3.23.04,4.86,7.17,8.41,14.33,16.82,21.51,25.21.92,1.07,1.35,2.22,1.29,3.65-.33,8.12-.6,16.24-.93,24.35-.03.73-.26,1.5-.59,2.16-6.58,13.57-13.18,27.14-19.8,40.7-.49,1-1.03,1.99-1.69,2.87-1.25,1.67-1.05,3.82.55,4.99,1.28.93,3.57.98,4.85-1.03,8.01-12.57,16.12-25.08,24.17-37.63.36-.56.59-1.32.59-1.99.04-7.58.03-15.17.03-22.75Zm48.45-.34c0,7.15.03,14.3-.03,21.45-.01,1.5.33,2.73,1.15,4.01,7.98,12.46,15.9,24.96,23.86,37.44.31.49.8.96,1.31,1.2,1.39.66,3.06.19,3.99-1,.97-1.24.97-2.94-.01-4.22-.35-.46-.75-.89-1-1.4-7.02-14.24-14.03-28.49-21.01-42.75-.32-.66-.55-1.44-.57-2.17-.25-8.01-.44-16.02-.67-24.03-.04-1.22.34-2.22,1.14-3.16,7.3-8.53,14.57-17.08,21.85-25.62,1.31-1.54,1.33-3.47.03-4.79-1.29-1.31-3.31-1.34-4.8-.07-8.12,6.9-16.23,13.8-24.36,20.67-.63.54-.91,1.07-.9,1.91.03,7.51.02,15.02.02,22.53Zm-76.32,71.28c-6.33-.02-11.19-6.15-9.71-12.5.15-.64.12-1.02-.5-1.42-5.38-3.45-10.72-6.96-16.09-10.42-3.26-2.1-7.15-1.32-9.12,1.78-1.94,3.06-1.04,6.88,2.16,8.96,16.52,10.74,33.05,21.48,49.58,32.2,3.04,1.97,6.95,1.18,8.9-1.75,1.99-3,1.2-6.92-1.87-8.94-5.16-3.39-10.36-6.72-15.52-10.1-.6-.4-.98-.3-1.5.11-1.8,1.41-3.88,2.04-6.34,2.07Zm114.21-10.23c-.22,4.34-2.19,7.55-6.1,9.3-3.9,1.74-7.63,1.13-10.92-1.64-.53-.45-.87-.53-1.48-.16-1.82,1.11-3.68,2.15-5.52,3.21-3.41,1.97-6.83,3.9-10.22,5.91-4.12,2.44-4.43,8.08-.57,10.79,2.51,1.76,5.05,1.44,7.62-.05,11.67-6.78,23.37-13.52,35.06-20.27,5.19-3,10.38-5.98,15.57-8.98,2.25-1.3,3.46-3.27,3.37-5.88-.09-2.56-1.36-4.46-3.68-5.56-2.08-.99-4.13-.79-6.11.36-5.44,3.15-10.87,6.3-16.33,9.4-.85.48-1.26.92-.88,1.93.2.52.14,1.14.19,1.66ZM50.02,31.51c.21-.2.37-.34.52-.49,4.34-4.34,8.69-8.67,13.01-13.02,2.74-2.76,2.81-6.71.21-9.29-2.6-2.57-6.55-2.46-9.29.28-5.9,5.89-11.8,11.79-17.69,17.68-8.01,8.01-16.03,16.03-24.04,24.05-2.08,2.08-2.57,5.14-1.25,7.57,2.12,3.94,7.09,4.64,10.35,1.42,4.44-4.39,8.84-8.82,13.25-13.24.17-.17.29-.38.43-.56-3.71-5.05-2.32-10.54.67-13.62,2.83-2.92,8.46-4.64,13.82-.78Zm104.99,14.65c.18.21.31.38.46.53,4.34,4.34,8.66,8.7,13.02,13.02,2.74,2.72,6.7,2.73,9.29.09,2.52-2.57,2.4-6.49-.31-9.21-2.82-2.84-5.67-5.67-8.5-8.5-11.05-11.05-22.1-22.1-33.15-33.16-1.76-1.76-3.87-2.35-6.25-1.82-2.38.53-3.96,2.06-4.62,4.4-.69,2.43-.07,4.58,1.71,6.36,4.48,4.51,8.98,8.99,13.47,13.48.12.12.28.2.41.3,5.32-4.02,11.06-2.39,14.04.68,2.85,2.94,4.5,8.53.44,13.83Zm-77.01,56.61c0,1.56.07,3.11-.01,4.64-.2,3.6,1.44,6.15,4.38,8,3.03,1.91,6.41,2.76,9.94,3.07,5.26.47,10.39-.06,15.15-2.55,2.34-1.22,4.44-2.88,4.93-5.57.46-2.47.32-5.05.46-7.66-11.72,6.12-23.19,6.12-34.85.06Z"/>
      <path class="cls-1" d="m95.35,70.24c-2.27,0-4.54.01-6.81,0-2.17-.01-3.68-1.4-3.72-3.39-.04-1.95,1.5-3.46,3.64-3.47,4.61-.03,9.23-.03,13.84,0,2.08.01,3.6,1.49,3.62,3.39.02,1.96-1.52,3.45-3.64,3.47-2.31.02-4.61,0-6.92,0h0Z"/>
      <path class="cls-1" d="m95.36,58.82c-2.31,0-4.62.01-6.93,0-2.08-.02-3.6-1.45-3.6-3.38,0-1.95,1.49-3.41,3.57-3.42,4.62-.02,9.24-.02,13.87,0,2.17,0,3.66,1.45,3.65,3.44,0,1.91-1.53,3.34-3.62,3.36-2.31.02-4.62,0-6.93,0Z"/>
      <path class="cls-1" d="m95.27,81.62c-2.24,0-4.48,0-6.72,0-2.16-.01-3.71-1.41-3.73-3.37-.03-2,1.54-3.45,3.77-3.45,4.51,0,9.03,0,13.54,0,2.24,0,3.77,1.4,3.79,3.43.02,1.93-1.54,3.36-3.71,3.38-2.31.02-4.62,0-6.93,0h0Z"/>
    </g>
  </g>
</svg>