<?xml version="1.0" encoding="UTF-8"?>
<svg id="Capa_2" data-name="Capa 2" xmlns="http://www.w3.org/2000/svg" viewBox="0 0 209.47 180">
  <defs>
    <style>
      .cls-1 {
        fill: #6a49c4;
      }
    </style>
  </defs>
  <g id="Capa_2-2" data-name="Capa 2">
    <g>
      <path class="cls-1" d="m36.48,39.47c-.4-1.88-.92-3.48-1.05-5.12-.4-5.01,2.3-9.03,7.11-10.48,5.16-1.56,10.35-3.04,15.57-4.39,5.49-1.42,10.75,1.77,12.26,7.26.16.6.33,1.2.67,2.41,2.19-2.01,4.27-3.6,5.94-5.54,1.48-1.72,2.71-3.72,3.7-5.77C86.28,6.18,95.49.2,108.42.14c12.76-.06,25.53-.33,38.27.12,11.31.4,19.54,6.24,24.74,16.32,2.69,5.2,5.13,10.57,8.26,15.49,3.57,5.6,8.69,9.8,14.7,12.69,9.7,4.66,15.08,12,15.07,23.01-.03,31.44-.02,62.89-.03,94.33,0,1.95.07,3.91,0,5.86-.24,7-5.31,11.93-12.3,11.97-5.57.03-11.15,0-16.72,0-55.71,0-111.41-.07-167.12.07C6.21,180.02-.04,175.02,0,166.6c.14-28.45.1-56.9,0-85.34-.01-4.15.49-8.05,2.14-11.89,1.81-4.21,3.29-8.57,4.94-12.85,2.56-6.62,7.31-10.85,14.11-12.79,5.06-1.44,10.15-2.83,15.27-4.26Zm166.74,33.06c-.13-2.61-.18-4.91-.38-7.19-.59-6.61-4.01-11.29-9.82-14.39-2.77-1.48-5.53-3.05-8.09-4.86-4.11-2.9-7.82-6.36-10.44-10.64-3.02-4.94-5.62-10.14-8.17-15.35-4.61-9.39-12.09-13.89-22.48-13.87-10.17.02-20.35-.09-30.52-.06-3.85,0-7.76-.2-11.52.43-7.31,1.22-12.14,5.71-14.96,12.56-3.79,9.2-10.51,15.46-20.06,18.24-14.48,4.22-29.05,8.15-43.59,12.2-3.18.88-6.2,2.25-7.95,5.09-1.72,2.8-2.94,5.93-4.23,8.97-1.19,2.83-2.17,5.74-3.3,8.76.73.05,1.18.1,1.62.1,19.42,0,38.84-.01,58.26.02,1.11,0,1.58-.51,2.13-1.34,11.43-17,27.29-26.93,47.77-28.07,23.76-1.33,42.43,8.4,55.72,28.23.59.87,1.15,1.21,2.19,1.21,8.56-.04,17.12-.03,25.69-.04.62,0,1.24,0,2.13,0Zm-25.83,6.15c.94,2.44,1.77,4.68,2.7,6.88.12.28.72.49,1.11.52,11.46.88,18.49,11.45,16.85,21.23-1.3,7.76-7.99,14.62-15.81,15.28-1.6.13-2.21.69-2.72,2.12-4.58,12.85-12.48,23.22-23.85,30.75-14.95,9.9-31.29,12.66-48.74,8.73-13.37-3.02-24.92-9.39-33.27-20.34-14.75-19.35-17.64-40.61-8.82-63.37.21-.55.43-1.11.72-1.84-.86,0-1.43,0-2,0-5.35,0-10.69.02-16.04-.03-2.28-.02-2.28-.09-2.28,2.12,0,30.35,0,60.71,0,91.06,0,.61,0,1.23,0,2,.81,0,1.37,0,1.94,0,7.93,0,15.85,0,23.78,0,23.97,0,47.93,0,71.9,0,16.73,0,33.46.01,50.19,0,6.86,0,10.33-3.56,10.33-10.48,0-27.48,0-54.96,0-82.43,0-.67,0-1.34,0-2.18h-25.97Zm-171.18.02c0,.73,0,1.3,0,1.87-.01,28.97-.03,57.94-.04,86.91,0,3.57,2.77,6.33,6.32,6.33,8.16-.01,16.32-.02,24.49-.02.67,0,1.33,0,2.13,0v-95.08H6.2Zm115.39,80.99c32.52-.47,55.12-23.7,55.19-55.56.06-30.59-25.11-55.19-55.6-55.03-30.63.16-55.52,25.45-55.06,56.38.45,29.78,25.51,54.47,55.46,54.22Zm60.26-43.31c6.45-1.15,10.72-6.74,10.23-13.1-.41-5.37-5.41-10.66-10.21-10.66,1.49,7.87,1.48,15.73-.02,23.76ZM65.28,31.45c-.35-1.24-.6-2.24-.9-3.21-.66-2.13-2.49-3.37-4.64-2.8-5.31,1.39-10.59,2.91-15.86,4.47-1.64.49-2.72,2.48-2.38,4.13.25,1.22.67,2.4,1.05,3.75,7.59-2.11,15.06-4.19,22.74-6.33Z"/>
      <path class="cls-1" d="m125.34,25.31c7.76,0,15.51.01,23.27-.01,1.59,0,2.85.48,3.39,2.07.6,1.79-.42,3.54-2.3,3.92-.78.16-1.6.13-2.4.13-14.7.01-29.4.02-44.1.02-.57,0-1.15.02-1.72-.02-1.97-.13-3.22-1.37-3.21-3.12.01-1.73,1.32-2.97,3.31-2.99,4.54-.04,9.08-.01,13.61-.01,3.38,0,6.77,0,10.15,0Z"/>
      <path class="cls-1" d="m45.22,59.85c-.03,5.64-4.44,10.04-10.07,10.03-5.62,0-10.06-4.56-10.02-10.29.04-5.42,4.64-9.91,10.1-9.86,5.65.06,10.02,4.48,9.99,10.11Zm-9.92,3.8c2.12-.03,3.78-1.72,3.79-3.85,0-2.2-1.75-3.95-3.91-3.9-2.26.06-3.93,1.75-3.87,3.94.06,2.22,1.76,3.84,4,3.81Z"/>
      <path class="cls-1" d="m169.7,104.38c-.01,26.58-21.6,48.29-48.01,48.26-27-.03-48.58-21.62-48.49-48.64.09-26.93,22.77-48.29,48.89-48.03,25.95.26,47.62,22.08,47.61,48.4Zm-6.37.42c.51-23.6-18.26-41.84-40.46-42.46-24.21-.67-42.26,17.49-43.2,39.78-.99,23.33,17.38,43.13,41.29,43.57,22.65.42,41.95-18.21,42.36-40.9Z"/>
      <path class="cls-1" d="m121.37,128.57c-13.34,0-24.16-10.78-24.14-24.04.02-13.57,10.78-24.39,24.24-24.36,13.41.03,24.26,10.84,24.27,24.17,0,13.51-10.78,24.23-24.36,24.22Zm.07-42.22c-10.02.01-18.05,8.06-18.04,18.08,0,9.78,8.1,18.03,17.77,18.1,10.18.08,18.61-8.16,18.4-18.35-.22-11.24-9.43-18.01-18.13-17.83Z"/>
    </g>
  </g>
</svg>