<?xml version="1.0" encoding="UTF-8"?>
<svg id="Capa_2" data-name="Capa 2" xmlns="http://www.w3.org/2000/svg" viewBox="0 0 234.93 180">
  <defs>
    <style>
      .cls-1 {
        fill: #fff;
      }
    </style>
  </defs>
  <g id="Capa_2-2" data-name="Capa 2">
    <g>
      <path class="cls-1" d="m0,3.77C.87.93,2.8.03,5.73.03,56.04.1,106.35.16,156.66,0c8.99-.03,15.52,3.8,20.63,10.68,5.42,7.3,8,15.78,9.31,24.61,2.05,13.75,1.67,27.46-2.2,40.89-2.47,8.59-6.4,16.38-13.99,21.72-1.24.87-2.59,1.67-4,2.19-1.45.53-1.96,1.27-1.95,2.84.09,7.33.04,14.66.04,22.17h39.15c0-2.87,0-5.75,0-8.62,0-2.22-.04-4.44.03-6.65.2-6.61,4.94-11.54,11.55-11.92,2.67-.15,5.36-.15,8.02,0,6.6.37,11.56,5.29,11.59,11.89.11,19.42.11,38.84,0,58.26-.04,6.79-5.23,11.72-12.04,11.9-2.37.06-4.74.06-7.11,0-6.83-.18-11.83-5.12-12.01-11.92-.1-3.73-.02-7.46-.02-11.34-.85-.06-1.51-.15-2.17-.15-11.93,0-23.85.02-35.78-.04-1.39,0-2.12.39-2.82,1.67-2.18,4.02-5.71,6.03-10.28,6.16-2.14.06-4.28.02-6.42.01-8.08-.03-12.99-4.88-13.01-13.02-.04-15.52-.01-31.04-.01-46.56v-2.97c-1.21,0-2.18,0-3.15,0-24.54,0-49.1-.44-73.62.18-12.49.32-19.94-5.54-25.18-15.79-4.85-9.49-6.85-19.71-7.37-30.26-.39-7.97.05-15.89,1.77-23.71.06-.29,0-.6,0-.98-2.6-.57-5.22-1-7.75-1.73C8.33,26.76,2.12,20.82.36,10.75c-.03-.2-.24-.37-.36-.55,0-2.14,0-4.28,0-6.42Zm22.85,4.12c4.72,2.74,8.93,5.01,12.96,7.57,6.22,3.94,12.14,8.29,16.48,14.38.81,1.14,1.64,1.53,3,1.52,8.41-.06,16.82.03,25.23-.07,2.41-.03,4.22.74,5.88,2.46,3.82,3.97,7.71,7.87,11.7,11.65.88.83,2.33,1.49,3.52,1.49,25.31.08,50.61.06,75.92.06h2.51c-.58-4.52-.97-8.7-1.68-12.83-1.17-6.84-3.39-13.32-7.6-18.95-3.46-4.63-7.73-7.38-13.92-7.36-43.66.13-87.31.07-130.97.07h-3.04Zm42.67,86.06h3.05c29.36,0,58.73-.09,88.09.07,6.37.04,10.76-2.78,14.29-7.59,4.16-5.67,6.33-12.16,7.48-19,.68-4.1,1.08-8.26,1.64-12.65-1.37,0-2.27,0-3.17,0-25.46,0-50.93-.04-76.39.06-3.01.01-5.2-.87-7.24-3.05-3.65-3.91-7.49-7.65-11.35-11.36-.79-.76-2.02-1.06-3.55-1.82.59,19.94-.51,38.75-12.84,55.34Zm-2.58-54.72c-.34,5.15-.41,10.12-1.07,15-.68,5.03-2.36,9.81-5.92,13.67-3.11,3.38-6.89,3.41-9.86-.09-1.41-1.66-2.67-3.58-3.5-5.58-4.11-9.92-4.2-20.04-1.17-30.27.24-.79.28-2.09-.19-2.56-1.58-1.61-3.44-2.96-5.33-4.53-.27.66-.47,1.05-.61,1.47-2.59,7.75-3.67,15.74-3.73,23.89-.08,10.66,1.33,21.09,5.98,30.76,1.75,3.64,4.19,7.15,7.03,10.01,4.1,4.13,8.84,3.93,12.98-.17,2.19-2.17,4.15-4.75,5.61-7.46,4.99-9.25,7.01-19.34,7.36-29.75.16-4.77-.29-9.55-.47-14.39h-7.1Zm148.51,99.67c0,9.32-.01,18.65,0,27.97,0,3.76,1.53,5.25,5.31,5.29,1.68.02,3.36.02,5.04,0,3.7-.04,5.23-1.6,5.27-5.36.02-1.6,0-3.21,0-4.81,0-16.89,0-33.78,0-50.67,0-4.18-1.49-5.64-5.69-5.66-1.38,0-2.75,0-4.13,0-4.36.02-5.8,1.43-5.81,5.74,0,9.17,0,18.34,0,27.51Zm-70.48-36.97v2.5c0,15.35,0,30.69,0,46.04,0,.61-.03,1.23.03,1.83.29,2.73,1.72,4.11,4.47,4.22,1.68.07,3.36.02,5.04.02,4.97,0,6.12-1.12,6.12-6,0-15.35,0-30.69,0-46.04,0-.82-.07-1.63-.11-2.57h-15.54Zm23.66,46.61h38.86v-15.26h-38.86v15.26ZM54.47,39.47c-2.4-.39-4.45-.72-6.66-1.08-1.19,7.79-.88,15.55,3.25,23.35,3.86-7.45,4.44-14.74,3.41-22.27ZM8.25,9.67c1.86,8.79,8.33,13.06,19.72,13.57.33-.85.68-1.74,1.18-3.03-6.9-3.48-13.66-6.89-20.9-10.55Z"/>
      <path class="cls-1" d="m109.83,82.17c-2.05.06-3.81-1.59-3.91-3.67-.11-2.21,1.54-4.01,3.71-4.07,2.05-.05,3.82,1.58,3.95,3.65.13,2.1-1.63,4.02-3.75,4.09Z"/>
      <path class="cls-1" d="m129.25,78.41c-.07,2.11-2.02,3.9-4.1,3.75-2.06-.14-3.66-1.9-3.6-3.98.06-2.17,1.9-3.87,4.05-3.74,2.04.12,3.72,1.95,3.65,3.96Z"/>
      <path class="cls-1" d="m94.1,74.44c2.15.01,3.89,1.83,3.81,3.99-.07,2.05-1.82,3.75-3.86,3.74-2.15-.01-3.86-1.82-3.79-4.01.07-2.1,1.75-3.73,3.83-3.72Z"/>
    </g>
  </g>
</svg>