<?xml version="1.0" encoding="UTF-8"?>
<svg id="Capa_2" data-name="Capa 2" xmlns="http://www.w3.org/2000/svg" viewBox="0 0 252.29 228">
  <defs>
    <style>
      .cls-1 {
        fill: #fff;
      }

      .cls-2 {
        fill: #333;
      }

      .cls-3 {
        fill: #0070f7;
      }
    </style>
  </defs>
  <g id="Capa_2-2" data-name="Capa 2">
    <g>
      <path class="cls-2" d="m6.38,0h239.52c3.52,0,6.38,2.86,6.38,6.38v209.11H0V6.38C0,2.86,2.86,0,6.38,0Z"/>
      <rect class="cls-3" y="215.49" width="252.29" height="12.51"/>
      <g>
        <path class="cls-1" d="m42.25,168.37h-8.93l-1.96,4.33h-1.21l7.08-15.4h1.12l7.08,15.4h-1.21l-1.98-4.33Zm-.42-.95l-4.05-8.89-4.03,8.89h8.07Z"/>
        <path class="cls-1" d="m48.1,156.38h1.1v16.33h-1.1v-16.33Z"/>
        <path class="cls-1" d="m72.94,165.99v6.71h-1.1v-6.62c0-2.6-1.34-3.96-3.59-3.96-2.6,0-4.2,1.74-4.2,4.47v6.12h-1.1v-6.62c0-2.6-1.34-3.96-3.59-3.96-2.6,0-4.2,1.74-4.2,4.47v6.12h-1.1v-11.49h1.06v2.46c.75-1.61,2.31-2.55,4.4-2.55s3.59.95,4.2,2.77c.75-1.67,2.42-2.77,4.64-2.77,2.77,0,4.58,1.65,4.58,4.86Z"/>
        <path class="cls-1" d="m85.98,165.42v7.28h-1.06v-2.05c-.73,1.32-2.13,2.13-4.14,2.13-2.57,0-4.14-1.32-4.14-3.28,0-1.74,1.1-3.21,4.29-3.21h3.94v-.92c0-2.13-1.17-3.28-3.41-3.28-1.58,0-3.01.59-3.96,1.45l-.55-.79c1.14-1.01,2.82-1.63,4.6-1.63,2.84,0,4.42,1.45,4.42,4.29Zm-1.1,3.89v-2.16h-3.92c-2.38,0-3.21.99-3.21,2.31,0,1.5,1.17,2.42,3.19,2.42s3.28-.92,3.94-2.57Z"/>
        <path class="cls-1" d="m89.5,166.96c0-3.43,2.44-5.83,5.81-5.83,1.83,0,3.41.7,4.36,2.11l-.81.59c-.84-1.17-2.11-1.72-3.54-1.72-2.71,0-4.69,1.94-4.69,4.84s1.98,4.84,4.69,4.84c1.43,0,2.71-.55,3.54-1.72l.81.59c-.95,1.39-2.53,2.11-4.36,2.11-3.37,0-5.81-2.42-5.81-5.83Z"/>
        <path class="cls-1" d="m112.69,167.22h-9.88c.11,2.73,2.11,4.58,4.86,4.58,1.45,0,2.79-.53,3.67-1.61l.64.73c-1.01,1.23-2.6,1.87-4.33,1.87-3.48,0-5.92-2.42-5.92-5.83s2.35-5.83,5.5-5.83,5.48,2.38,5.48,5.79c0,.09-.02.2-.02.31Zm-9.86-.86h8.8c-.15-2.49-1.96-4.27-4.4-4.27s-4.22,1.76-4.4,4.27Z"/>
        <path class="cls-1" d="m126.62,165.99v6.71h-1.1v-6.62c0-2.6-1.39-3.96-3.72-3.96-2.71,0-4.36,1.74-4.36,4.47v6.12h-1.1v-11.49h1.06v2.49c.77-1.61,2.38-2.58,4.55-2.58,2.79,0,4.66,1.65,4.66,4.86Z"/>
        <path class="cls-1" d="m139.66,165.42v7.28h-1.06v-2.05c-.73,1.32-2.13,2.13-4.14,2.13-2.57,0-4.14-1.32-4.14-3.28,0-1.74,1.1-3.21,4.29-3.21h3.94v-.92c0-2.13-1.17-3.28-3.41-3.28-1.58,0-3.01.59-3.96,1.45l-.55-.79c1.14-1.01,2.82-1.63,4.6-1.63,2.84,0,4.42,1.45,4.42,4.29Zm-1.1,3.89v-2.16h-3.92c-2.38,0-3.21.99-3.21,2.31,0,1.5,1.17,2.42,3.19,2.42s3.28-.92,3.94-2.57Z"/>
        <path class="cls-1" d="m163.29,165.99v6.71h-1.1v-6.62c0-2.6-1.34-3.96-3.59-3.96-2.6,0-4.2,1.74-4.2,4.47v6.12h-1.1v-6.62c0-2.6-1.34-3.96-3.59-3.96-2.6,0-4.2,1.74-4.2,4.47v6.12h-1.1v-11.49h1.06v2.46c.75-1.61,2.31-2.55,4.4-2.55s3.59.95,4.2,2.77c.75-1.67,2.42-2.77,4.64-2.77,2.77,0,4.58,1.65,4.58,4.86Z"/>
        <path class="cls-1" d="m167.69,157.54c0-.48.4-.9.9-.9s.9.4.9.88-.4.9-.9.9-.9-.4-.9-.88Zm.35,3.67h1.1v11.49h-1.1v-11.49Z"/>
        <path class="cls-1" d="m183.71,167.22h-9.88c.11,2.73,2.11,4.58,4.86,4.58,1.45,0,2.79-.53,3.67-1.61l.64.73c-1.01,1.23-2.6,1.87-4.33,1.87-3.48,0-5.92-2.42-5.92-5.83s2.35-5.83,5.5-5.83,5.48,2.38,5.48,5.79c0,.09-.02.2-.02.31Zm-9.86-.86h8.8c-.15-2.49-1.96-4.27-4.4-4.27s-4.22,1.76-4.4,4.27Z"/>
        <path class="cls-1" d="m197.63,165.99v6.71h-1.1v-6.62c0-2.6-1.39-3.96-3.72-3.96-2.71,0-4.36,1.74-4.36,4.47v6.12h-1.1v-11.49h1.06v2.49c.77-1.61,2.38-2.58,4.55-2.58,2.79,0,4.66,1.65,4.66,4.86Z"/>
        <path class="cls-1" d="m208.08,171.97c-.57.55-1.5.81-2.35.81-2.02,0-3.12-1.19-3.12-3.12v-7.5h-2.11v-.95h2.11v-2.51h1.1v2.51h3.65v.95h-3.65v7.39c0,1.47.73,2.29,2.13,2.29.68,0,1.32-.22,1.78-.64l.46.77Z"/>
        <path class="cls-1" d="m209.69,166.96c0-3.41,2.44-5.83,5.74-5.83s5.74,2.42,5.74,5.83-2.44,5.83-5.74,5.83-5.74-2.42-5.74-5.83Zm10.36,0c0-2.88-1.98-4.84-4.62-4.84s-4.62,1.96-4.62,4.84,1.98,4.84,4.62,4.84,4.62-1.96,4.62-4.84Z"/>
        <path class="cls-1" d="m87.15,178.38v16.33h-1.08v-2.71c-.9,1.78-2.64,2.79-4.71,2.79-3.23,0-5.68-2.4-5.68-5.83s2.44-5.83,5.68-5.83c2.05,0,3.76,1.01,4.69,2.75v-7.5h1.1Zm-1.1,10.58c0-2.88-1.98-4.84-4.62-4.84s-4.62,1.96-4.62,4.84,1.98,4.84,4.62,4.84,4.62-1.96,4.62-4.84Z"/>
        <path class="cls-1" d="m101.71,189.22h-9.88c.11,2.73,2.11,4.58,4.86,4.58,1.45,0,2.79-.53,3.67-1.61l.64.73c-1.01,1.23-2.6,1.87-4.33,1.87-3.48,0-5.92-2.42-5.92-5.83s2.35-5.83,5.5-5.83,5.48,2.38,5.48,5.79c0,.09-.02.2-.02.31Zm-9.86-.86h8.8c-.15-2.49-1.96-4.27-4.4-4.27s-4.22,1.76-4.4,4.27Z"/>
        <path class="cls-1" d="m129.76,179.3l-6.87,15.4h-1.12l-6.87-15.4h1.23l6.23,13.95,6.23-13.95h1.17Z"/>
        <path class="cls-1" d="m131.63,179.54c0-.48.4-.9.9-.9s.9.4.9.88-.4.9-.9.9-.9-.4-.9-.88Zm.35,3.67h1.1v11.49h-1.1v-11.49Z"/>
        <path class="cls-1" d="m148.16,178.38v16.33h-1.08v-2.71c-.9,1.78-2.64,2.79-4.71,2.79-3.23,0-5.68-2.4-5.68-5.83s2.44-5.83,5.68-5.83c2.05,0,3.76,1.01,4.69,2.75v-7.5h1.1Zm-1.1,10.58c0-2.88-1.98-4.84-4.62-4.84s-4.62,1.96-4.62,4.84,1.98,4.84,4.62,4.84,4.62-1.96,4.62-4.84Z"/>
        <path class="cls-1" d="m162.72,189.22h-9.88c.11,2.73,2.11,4.58,4.86,4.58,1.45,0,2.79-.53,3.67-1.61l.64.73c-1.01,1.23-2.6,1.87-4.33,1.87-3.48,0-5.92-2.42-5.92-5.83s2.35-5.83,5.5-5.83,5.48,2.38,5.48,5.79c0,.09-.02.2-.02.31Zm-9.86-.86h8.8c-.15-2.49-1.96-4.27-4.4-4.27s-4.22,1.76-4.4,4.27Z"/>
        <path class="cls-1" d="m165.12,188.96c0-3.41,2.44-5.83,5.74-5.83s5.74,2.42,5.74,5.83-2.44,5.83-5.74,5.83-5.74-2.42-5.74-5.83Zm10.36,0c0-2.88-1.98-4.84-4.62-4.84s-4.62,1.96-4.62,4.84,1.98,4.84,4.62,4.84,4.62-1.96,4.62-4.84Z"/>
      </g>
      <g>
        <path class="cls-3" d="m186.5,96.74c-.73,2.28-1.96,4.12-4.41,4.78-.82.22-1.7.31-2.56.31-35.59.02-71.18.02-106.77,0-4.52,0-6.97-2.49-6.97-7.02,0-18.86,0-37.71,0-56.57,0-4.58,2.47-7.04,7.07-7.04,35.2,0,70.39.03,105.59-.04,3.89,0,6.73,1.1,8.05,4.98v60.59Zm-60.41.1c17.76,0,35.51,0,53.27,0,1.95,0,2.17-.22,2.17-2.16,0-18.74,0-37.48,0-56.22,0-2.06-.22-2.28-2.3-2.28-35.4,0-70.79,0-106.19,0-2.06,0-2.29.22-2.29,2.3,0,18.66,0,37.32,0,55.98,0,2.25.13,2.38,2.42,2.38,17.64,0,35.28,0,52.92,0Z"/>
        <path class="cls-3" d="m186.5,119.13c-.73,1.43-1.94,1.84-3.48,1.83-15.09-.03-30.17-.01-45.26-.03-.93,0-1.42.19-1.78,1.18-1.33,3.67-5.12,6.18-9.06,6.19-3.98,0-7.77-2.54-9.13-6.27-.31-.86-.7-1.1-1.59-1.1-15.56.03-31.11.02-46.67.01-.59,0-1.18-.03-1.75-.14-1.19-.23-2.01-1.29-1.96-2.44.05-1.17.92-2.15,2.12-2.31.54-.08,1.1-.08,1.64-.08,15.44,0,30.88-.01,46.32.02,1.01,0,1.57-.17,1.97-1.26,1.34-3.66,5.21-6.19,9.1-6.14,3.93.06,7.69,2.52,8.99,6.12.4,1.11.95,1.27,1.96,1.27,15.05-.02,30.09,0,45.14-.03,1.6,0,2.86.36,3.45,2.01v1.18Zm-64.44-.68c0,2.68,2.2,4.88,4.85,4.87,2.64,0,4.87-2.24,4.87-4.88,0-2.65-2.22-4.86-4.88-4.86-2.67,0-4.84,2.19-4.84,4.87Z"/>
        <path class="cls-3" d="m111.93,66.55c0-5.42,0-10.84,0-16.25,0-1.81.88-2.93,2.36-2.89.62.02,1.33.26,1.84.62,7.63,5.38,15.24,10.8,22.84,16.22,1.89,1.35,1.9,3.2.03,4.53-7.6,5.42-15.22,10.82-22.83,16.25-.9.64-1.81.93-2.85.41-1.09-.54-1.41-1.49-1.4-2.63.01-5.42,0-10.84,0-16.25Zm5.03,11.81c5.65-4.02,11.09-7.9,16.63-11.84-5.62-3.99-11.06-7.86-16.63-11.81v23.65Z"/>
      </g>
    </g>
  </g>
</svg>