<?xml version="1.0" encoding="utf-8"?>
<!-- Generator: Adobe Illustrator 27.1.0, SVG Export Plug-In . SVG Version: 6.00 Build 0)  -->
<svg version="1.1" id="Capa_2_00000067235587041801463030000007952932291126809758_"
	 xmlns="http://www.w3.org/2000/svg" xmlns:xlink="http://www.w3.org/1999/xlink" x="0px" y="0px" viewBox="0 0 385.4 140.4"
	 style="enable-background:new 0 0 385.4 140.4;" xml:space="preserve">
<style type="text/css">
	.st0{fill:#FFFFFF;}
</style>
<g>
	<g>
		<g>
			<path class="st0" d="M369.8,140.7H15.6C7,140.7,0,133.7,0,125V16C0,7.3,7,0.3,15.6,0.3h354.2c8.6,0,15.6,7,15.6,15.6V125
				C385.4,133.7,378.4,140.7,369.8,140.7z M15.6,3.9C9,3.9,3.6,9.3,3.6,16V125c0,6.7,5.4,12.1,12.1,12.1h354.2
				c6.7,0,12.1-5.4,12.1-12.1V16c0-6.7-5.4-12.1-12.1-12.1H15.6z"/>
		</g>
	</g>
	<g>
		<g>
			<path class="st0" d="M60.5,24.7v89H54V30.5H32.3v-5.9H60.5z"/>
			<path class="st0" d="M139.9,107.9v5.9H78.7v-4.6l37.7-37.4C126.9,61.2,129,55,129,48.2C129,37,121.2,30,106.5,30
				C95.3,30,87,33.3,80.9,40.3l-4.6-4.1C83,28.5,93.6,24.1,107,24.1c17.4,0,28.6,9,28.6,23.5c0,8.5-2.8,16-14.5,27.6l-32.8,32.7
				H139.9z"/>
			<path class="st0" d="M216.5,89.3c0,15.5-12.8,25.1-33.8,25.1s-33.6-9.5-33.6-25.1c0-11.2,6.9-19,19-22.1
				c-10.2-3.3-15.8-10.3-15.8-20.1c0-14.2,12-23,30.4-23c18.4,0,30.7,8.8,30.7,23c0,9.8-5.7,16.8-16,20.1
				C209.5,70.4,216.5,78.2,216.5,89.3z M210,89.3c0-11.8-10.2-19.3-27.4-19.3s-27.1,7.5-27.1,19.3c0,12,9.9,19.5,27.1,19.5
				S210,101.3,210,89.3z M182.7,64.6c15.1,0,24.2-6.7,24.2-17.3c0-10.9-9.4-17.7-24.2-17.7s-23.9,6.7-23.9,17.6
				C158.7,57.9,167.5,64.6,182.7,64.6z"/>
			<path class="st0" d="M279.8,80.6h4.7v25c-6,5.7-14.7,8.6-23.9,8.6c-20.1,0-34.9-14.4-34.9-33.9c0-19.5,14.8-33.9,35-33.9
				c9.6,0,18.1,3.1,24,9.2l-3.1,3.2c-5.8-5.7-12.8-7.9-20.9-7.9c-17.4,0-30.2,12.6-30.2,29.4c0,16.7,12.9,29.4,30.2,29.4
				c7.1,0,13.5-1.7,19-6.1V80.6z"/>
			<path class="st0" d="M358.3,96.1c0,11.3-8.2,17.7-24.6,17.7h-29.8V47h27.9c14.3,0,23,6,23,17.1c0,7.9-4.5,13.1-11.2,15.3
				C353.1,81.1,358.3,86.8,358.3,96.1z M308.8,51.1v26.6h22.8c11.5,0,18.2-4.5,18.2-13.4c0-8.8-6.7-13.3-18.2-13.3H308.8z
				 M353.4,95.7c0-9.5-7-13.7-19.8-13.7h-24.9v27.6h24.9C346.5,109.5,353.4,105.3,353.4,95.7z"/>
		</g>
	</g>
</g>
</svg>
