<?xml version="1.0" encoding="UTF-8"?>
<svg id="Capa_2" data-name="Capa 2" xmlns="http://www.w3.org/2000/svg" viewBox="0 0 320.38 140.31">
  <defs>
    <style>
      .cls-1 {
        fill: #fff;
      }
    </style>
  </defs>
  <g id="Capa_2-2" data-name="Capa 2">
    <g>
      <g>
        <path class="cls-1" d="m85.13,88.46c0,14.76-10.69,25.7-31.17,25.7-13.1,0-25.19-4.83-31.43-11.96l3.31-4.96c5.47,6.23,15.9,10.94,28.12,10.94,16.03,0,24.56-7.63,24.56-19.72s-8.14-19.72-25.96-19.72h-5.6v-4.71l26.34-33.72H25.84v-5.85h55.85v4.58l-26.72,34.22c20.23.51,30.15,10.69,30.15,25.19Z"/>
        <path class="cls-1" d="m155.11,107.68v5.85h-61.2v-4.58l37.66-37.41c10.56-10.56,12.6-16.79,12.6-23.54,0-11.2-7.76-18.19-22.52-18.19-11.2,0-19.47,3.31-25.57,10.31l-4.58-4.07c6.74-7.76,17.3-12.21,30.66-12.21,17.43,0,28.63,9.03,28.63,23.54,0,8.52-2.8,16.03-14.5,27.61l-32.82,32.7h51.65Z"/>
        <path class="cls-1" d="m217.14,80.42h4.68v25c-6.01,5.73-14.7,8.59-23.86,8.59-20.14,0-34.93-14.41-34.93-33.88s14.79-33.88,35.02-33.88c9.64,0,18.13,3.05,24.05,9.16l-3.05,3.25c-5.82-5.73-12.79-7.92-20.9-7.92-17.37,0-30.25,12.6-30.25,29.39s12.88,29.39,30.25,29.39c7.06,0,13.55-1.72,18.99-6.11v-23Z"/>
        <path class="cls-1" d="m295.68,95.87c0,11.26-8.21,17.65-24.62,17.65h-29.77V46.73h27.87c14.31,0,23,6.01,23,17.08,0,7.92-4.49,13.07-11.17,15.27,9.45,1.81,14.7,7.54,14.7,16.79Zm-49.53-44.95v26.62h22.81c11.55,0,18.23-4.49,18.23-13.36s-6.68-13.26-18.23-13.26h-22.81Zm44.66,44.57c0-9.54-6.97-13.74-19.75-13.74h-24.91v27.58h24.91c12.79,0,19.75-4.2,19.75-13.84Z"/>
      </g>
      <path class="cls-1" d="m304.76,140.31H15.62c-8.61,0-15.62-7.01-15.62-15.62V15.62C0,7.01,7.01,0,15.62,0h289.14c8.61,0,15.62,7.01,15.62,15.62v109.08c0,8.61-7.01,15.62-15.62,15.62ZM15.62,3.55c-6.65,0-12.07,5.41-12.07,12.07v109.08c0,6.65,5.41,12.07,12.07,12.07h289.14c6.65,0,12.07-5.41,12.07-12.07V15.62c0-6.65-5.41-12.07-12.07-12.07H15.62Z"/>
    </g>
  </g>
</svg>