<?xml version="1.0" encoding="UTF-8"?>
<svg id="Capa_2" data-name="Capa 2" xmlns="http://www.w3.org/2000/svg" viewBox="0 0 252.29 228">
  <defs>
    <style>
      .cls-1 {
        fill: #fff;
      }

      .cls-2 {
        fill: #333;
      }

      .cls-3 {
        fill: #fc3d3d;
      }
    </style>
  </defs>
  <g id="Capa_2-2" data-name="Capa 2">
    <g>
      <path class="cls-2" d="m6.38,0h239.52c3.52,0,6.38,2.86,6.38,6.38v209.11H0V6.38C0,2.86,2.86,0,6.38,0Z"/>
      <rect class="cls-3" y="215.49" width="252.29" height="12.51"/>
      <g>
        <path class="cls-1" d="m42.25,168.37h-8.93l-1.96,4.33h-1.21l7.08-15.4h1.12l7.08,15.4h-1.21l-1.98-4.33Zm-.42-.95l-4.05-8.89-4.03,8.89h8.08Z"/>
        <path class="cls-1" d="m48.1,156.38h1.1v16.33h-1.1v-16.33Z"/>
        <path class="cls-1" d="m72.94,165.99v6.71h-1.1v-6.62c0-2.6-1.34-3.96-3.59-3.96-2.6,0-4.2,1.74-4.2,4.47v6.12h-1.1v-6.62c0-2.6-1.34-3.96-3.59-3.96-2.6,0-4.2,1.74-4.2,4.47v6.12h-1.1v-11.49h1.06v2.46c.75-1.61,2.31-2.55,4.4-2.55s3.59.95,4.2,2.77c.75-1.67,2.42-2.77,4.64-2.77,2.77,0,4.58,1.65,4.58,4.86Z"/>
        <path class="cls-1" d="m85.98,165.42v7.28h-1.06v-2.05c-.73,1.32-2.13,2.13-4.14,2.13-2.57,0-4.14-1.32-4.14-3.28,0-1.74,1.1-3.21,4.29-3.21h3.94v-.92c0-2.13-1.17-3.28-3.41-3.28-1.58,0-3.01.59-3.96,1.45l-.55-.79c1.14-1.01,2.82-1.63,4.6-1.63,2.84,0,4.42,1.45,4.42,4.29Zm-1.1,3.89v-2.16h-3.92c-2.38,0-3.21.99-3.21,2.31,0,1.5,1.17,2.42,3.19,2.42s3.28-.92,3.94-2.57Z"/>
        <path class="cls-1" d="m89.5,166.96c0-3.43,2.44-5.83,5.81-5.83,1.83,0,3.41.7,4.36,2.11l-.81.59c-.84-1.17-2.11-1.72-3.54-1.72-2.71,0-4.69,1.94-4.69,4.84s1.98,4.84,4.69,4.84c1.43,0,2.71-.55,3.54-1.72l.81.59c-.95,1.39-2.53,2.11-4.36,2.11-3.37,0-5.81-2.42-5.81-5.83Z"/>
        <path class="cls-1" d="m112.69,167.23h-9.88c.11,2.73,2.11,4.58,4.86,4.58,1.45,0,2.79-.53,3.67-1.61l.64.73c-1.01,1.23-2.6,1.87-4.33,1.87-3.48,0-5.92-2.42-5.92-5.83s2.35-5.83,5.5-5.83,5.48,2.38,5.48,5.79c0,.09-.02.2-.02.31Zm-9.86-.86h8.8c-.15-2.49-1.96-4.27-4.4-4.27s-4.22,1.76-4.4,4.27Z"/>
        <path class="cls-1" d="m126.62,165.99v6.71h-1.1v-6.62c0-2.6-1.39-3.96-3.72-3.96-2.71,0-4.36,1.74-4.36,4.47v6.12h-1.1v-11.49h1.06v2.49c.77-1.61,2.38-2.57,4.55-2.57,2.79,0,4.66,1.65,4.66,4.86Z"/>
        <path class="cls-1" d="m139.66,165.42v7.28h-1.06v-2.05c-.73,1.32-2.13,2.13-4.14,2.13-2.57,0-4.14-1.32-4.14-3.28,0-1.74,1.1-3.21,4.29-3.21h3.94v-.92c0-2.13-1.17-3.28-3.41-3.28-1.58,0-3.01.59-3.96,1.45l-.55-.79c1.14-1.01,2.82-1.63,4.6-1.63,2.84,0,4.42,1.45,4.42,4.29Zm-1.1,3.89v-2.16h-3.92c-2.38,0-3.21.99-3.21,2.31,0,1.5,1.17,2.42,3.19,2.42s3.28-.92,3.94-2.57Z"/>
        <path class="cls-1" d="m163.29,165.99v6.71h-1.1v-6.62c0-2.6-1.34-3.96-3.59-3.96-2.6,0-4.2,1.74-4.2,4.47v6.12h-1.1v-6.62c0-2.6-1.34-3.96-3.59-3.96-2.6,0-4.2,1.74-4.2,4.47v6.12h-1.1v-11.49h1.06v2.46c.75-1.61,2.31-2.55,4.4-2.55s3.59.95,4.2,2.77c.75-1.67,2.42-2.77,4.64-2.77,2.77,0,4.58,1.65,4.58,4.86Z"/>
        <path class="cls-1" d="m167.69,157.54c0-.48.4-.9.9-.9s.9.4.9.88-.4.9-.9.9-.9-.4-.9-.88Zm.35,3.67h1.1v11.49h-1.1v-11.49Z"/>
        <path class="cls-1" d="m183.71,167.23h-9.88c.11,2.73,2.11,4.58,4.86,4.58,1.45,0,2.79-.53,3.67-1.61l.64.73c-1.01,1.23-2.6,1.87-4.33,1.87-3.48,0-5.92-2.42-5.92-5.83s2.35-5.83,5.5-5.83,5.48,2.38,5.48,5.79c0,.09-.02.2-.02.31Zm-9.86-.86h8.8c-.15-2.49-1.96-4.27-4.4-4.27s-4.22,1.76-4.4,4.27Z"/>
        <path class="cls-1" d="m197.63,165.99v6.71h-1.1v-6.62c0-2.6-1.39-3.96-3.72-3.96-2.71,0-4.36,1.74-4.36,4.47v6.12h-1.1v-11.49h1.06v2.49c.77-1.61,2.38-2.57,4.55-2.57,2.79,0,4.66,1.65,4.66,4.86Z"/>
        <path class="cls-1" d="m208.08,171.98c-.57.55-1.5.81-2.35.81-2.02,0-3.12-1.19-3.12-3.12v-7.5h-2.11v-.95h2.11v-2.51h1.1v2.51h3.65v.95h-3.65v7.39c0,1.47.73,2.29,2.13,2.29.68,0,1.32-.22,1.78-.64l.46.77Z"/>
        <path class="cls-1" d="m209.69,166.96c0-3.41,2.44-5.83,5.74-5.83s5.74,2.42,5.74,5.83-2.44,5.83-5.74,5.83-5.74-2.42-5.74-5.83Zm10.36,0c0-2.88-1.98-4.84-4.62-4.84s-4.62,1.96-4.62,4.84,1.98,4.84,4.62,4.84,4.62-1.96,4.62-4.84Z"/>
        <path class="cls-1" d="m82.47,178.38v16.33h-1.08v-2.71c-.9,1.78-2.64,2.79-4.71,2.79-3.23,0-5.68-2.4-5.68-5.83s2.44-5.83,5.68-5.83c2.05,0,3.76,1.01,4.69,2.75v-7.5h1.1Zm-1.1,10.58c0-2.88-1.98-4.84-4.62-4.84s-4.62,1.96-4.62,4.84,1.98,4.84,4.62,4.84,4.62-1.96,4.62-4.84Z"/>
        <path class="cls-1" d="m97.03,189.23h-9.88c.11,2.73,2.11,4.58,4.86,4.58,1.45,0,2.79-.53,3.67-1.61l.64.73c-1.01,1.23-2.6,1.87-4.33,1.87-3.48,0-5.92-2.42-5.92-5.83s2.35-5.83,5.5-5.83,5.48,2.38,5.48,5.79c0,.09-.02.2-.02.31Zm-9.86-.86h8.8c-.15-2.49-1.96-4.27-4.4-4.27s-4.22,1.76-4.4,4.27Z"/>
        <path class="cls-1" d="m121.47,194.7l-.02-13.18-6.45,11.13h-.55l-6.45-11.09v13.14h-1.1v-15.4h.95l6.89,11.9,6.89-11.9h.92l.02,15.4h-1.1Z"/>
        <path class="cls-1" d="m137.86,183.22v11.49h-1.06v-2.46c-.75,1.61-2.31,2.55-4.33,2.55-2.93,0-4.8-1.65-4.8-4.86v-6.71h1.1v6.62c0,2.6,1.39,3.96,3.78,3.96,2.6,0,4.2-1.74,4.2-4.47v-6.12h1.1Zm-5.15-1.87h-1.19l3.06-2.6h1.58l-3.45,2.6Z"/>
        <path class="cls-1" d="m141.05,193.32l.51-.88c.88.75,2.44,1.39,4.14,1.39,2.42,0,3.39-.86,3.39-2.16,0-3.34-7.61-.88-7.61-5.39,0-1.74,1.45-3.15,4.36-3.15,1.45,0,3.04.44,3.94,1.12l-.51.88c-.97-.7-2.22-1.03-3.45-1.03-2.24,0-3.23.92-3.23,2.16,0,3.45,7.61,1.01,7.61,5.39,0,1.87-1.61,3.15-4.53,3.15-1.89,0-3.7-.64-4.6-1.47Z"/>
        <path class="cls-1" d="m153.13,179.54c0-.48.4-.9.9-.9s.9.4.9.88-.4.9-.9.9-.9-.4-.9-.88Zm.35,3.67h1.1v11.49h-1.1v-11.49Z"/>
        <path class="cls-1" d="m158.19,188.96c0-3.43,2.44-5.83,5.81-5.83,1.83,0,3.41.7,4.36,2.11l-.81.59c-.84-1.17-2.11-1.72-3.54-1.72-2.71,0-4.69,1.94-4.69,4.84s1.98,4.84,4.69,4.84c1.43,0,2.71-.55,3.54-1.72l.81.59c-.95,1.39-2.53,2.11-4.36,2.11-3.37,0-5.81-2.42-5.81-5.83Z"/>
        <path class="cls-1" d="m180.16,187.42v7.28h-1.06v-2.05c-.73,1.32-2.13,2.13-4.14,2.13-2.57,0-4.14-1.32-4.14-3.28,0-1.74,1.1-3.21,4.29-3.21h3.94v-.92c0-2.13-1.17-3.28-3.41-3.28-1.58,0-3.01.59-3.96,1.45l-.55-.79c1.14-1.01,2.82-1.63,4.6-1.63,2.84,0,4.42,1.45,4.42,4.29Zm-1.1,3.89v-2.16h-3.92c-2.38,0-3.21.99-3.21,2.31,0,1.5,1.17,2.42,3.19,2.42s3.28-.92,3.94-2.57Z"/>
      </g>
      <path class="cls-3" d="m117.59,95.82c0-.63,0-1.08,0-1.52,0-15.31.03-30.63-.03-45.94,0-2.04.73-3.13,2.6-3.94,12.3-5.36,24.56-10.82,36.83-16.24,2.58-1.14,4.35.02,4.35,2.83,0,19.22,0,38.43,0,57.65,0,4.55-1.99,8.16-5.36,11.04-4.12,3.52-9,4.93-14.34,4.39-5.85-.6-10.79-4.03-12.02-9.98-.8-3.85.28-7.38,2.69-10.42,3.82-4.83,8.98-7.02,15.05-7.05,2.98-.01,5.82.75,8.47,2.46v-34.36c-3.05,1.33-6.01,2.61-8.97,3.92-7.62,3.37-15.23,6.77-22.88,10.1-.9.39-1.11.87-1.11,1.75.02,14.32.03,28.64,0,42.95-.02,9.25-4.65,15.04-13.77,17.03-5.44,1.18-10.52.31-14.65-3.69-3.99-3.86-4.61-9.68-1.74-14.57,2.87-4.9,7.27-7.56,12.74-8.54,3.9-.71,7.68-.27,11.19,1.71.23.13.47.22.93.42Zm-12.29,19.97c4.39-.22,8.58-2.49,10.79-5.62,2.74-3.88,1.62-8.37-2.68-10.4-1.95-.92-4.01-1.16-6.17-.89-3.91.49-7.14,2.13-9.41,5.39-2.77,3.95-1.51,8.48,2.93,10.35,1.43.6,3.03.79,4.55,1.16Zm41.75-33.77c-4.12.15-7.63,1.61-10.35,4.8-3.52,4.12-2.01,9.68,3.12,11.39,1.78.59,3.59.77,5.48.49,4.21-.61,7.61-2.48,9.74-6.23,1.99-3.49.76-7.51-2.86-9.21-1.57-.73-3.44-1.26-5.13-1.25Zm-24.15-28.71c.53-.2.85-.31,1.15-.44,3.86-1.71,7.72-3.42,11.58-5.12,6.38-2.81,12.77-5.61,19.14-8.45.44-.2,1.03-.65,1.08-1.04.14-1.15.05-2.34.05-3.65-.49.19-.87.32-1.23.48-2.48,1.09-4.96,2.2-7.45,3.29-7.9,3.49-15.8,6.97-23.69,10.48-.27.12-.59.49-.61.76-.07,1.16-.03,2.33-.03,3.68Z"/>
    </g>
  </g>
</svg>