<?xml version="1.0" encoding="utf-8"?>
<!-- Generator: Adobe Illustrator 27.1.0, SVG Export Plug-In . SVG Version: 6.00 Build 0)  -->
<svg version="1.1" id="Capa_2_00000043438350547191635980000000157687334166782871_"
	 xmlns="http://www.w3.org/2000/svg" xmlns:xlink="http://www.w3.org/1999/xlink" x="0px" y="0px" viewBox="0 0 252.3 228"
	 style="enable-background:new 0 0 252.3 228;" xml:space="preserve">
<style type="text/css">
	.st0{fill:#333333;}
	.st1{fill:#FF5824;}
	.st2{fill:#FFFFFF;}
</style>
<g>
	<path class="st0" d="M245.8,0.5H6.2c-3.5,0-6.4,2.9-6.4,6.4V216h252.3V6.9C252.1,3.4,249.3,0.5,245.8,0.5z"/>
	<rect x="-0.1" y="216" class="st1" width="252.3" height="12.5"/>
	<g>
		<path class="st1" d="M156.8,80.3c0,13.6,0,27.1,0,40.7c0,7.8-5.3,13.1-13.1,13.1c-11.9,0-23.7,0-35.6,0c-7.5,0-12.9-5.4-12.9-12.9
			c0-27.2,0-54.4,0-81.6c0-7.8,5.3-13.2,13.1-13.2c11.7,0,23.4,0,35.1,0c8.1,0,13.3,5.3,13.3,13.3C156.8,53.2,156.8,66.8,156.8,80.3
			z M153.4,47c-0.6,0-1-0.1-1.4-0.1c-17.3,0-34.6,0-51.8,0c-1.4,0-1.6,0.4-1.6,1.7c0,19.9,0,39.8,0,59.8c0,1.4,0.4,1.8,1.8,1.8
			c17.2,0,34.4,0,51.5,0c0.5,0,0.9,0,1.5,0C153.4,89,153.4,68.1,153.4,47z M153.3,113.5c-18.2,0-36.4,0-54.5,0c0,3.4-0.3,6.7,0.1,10
			c0.5,4,4.3,7.2,8.3,7.2c12.6,0.1,25.2,0.1,37.8,0c4.1,0,7.9-3.3,8.3-7.3C153.5,120.1,153.3,116.8,153.3,113.5z M153.5,43.5
			c0-1.5,0-2.8,0-4.1c0-5.9-3.8-9.7-9.7-9.7c-11.8,0-23.6,0-35.4,0c-0.9,0-1.8,0-2.6,0.2c-6.4,1.7-7.9,7.1-6.9,13.5
			C116.9,43.5,135.1,43.5,153.5,43.5z"/>
		<path class="st1" d="M126,117.1c2.7,0,4.9,2.2,5,4.9c0,2.8-2.3,5.1-5,5c-2.7,0-4.9-2.3-5-4.9C121,119.3,123.2,117.1,126,117.1z
			 M124.5,122.2c0.2,1.1,1.5,1.7,2.4,1.1c0.6-0.3,0.8-0.8,0.6-1.4c-0.1-0.6-1-1.4-1.6-1.5C125,120.4,124.3,121.2,124.5,122.2
			C124.5,122.2,124.5,122.2,124.5,122.2z"/>
		<path class="st1" d="M126.1,33.6c1.5,0,3,0,4.5,0c1.2,0,1.9,0.6,1.9,1.7c0,1.1-0.8,1.6-1.9,1.6c-3.1,0-6.2,0-9.4,0
			c-1.2,0-1.9-0.6-1.9-1.7c0-1.1,0.8-1.6,1.9-1.6C122.9,33.6,124.5,33.6,126.1,33.6z"/>
	</g>
	<g>
		<g>
			<path class="st2" d="M35.8,172.2v1H25.1v-15.4h10.3v1h-9.2v6.1h8.2v1h-8.2v6.3H35.8z"/>
			<path class="st2" d="M46.7,173.2l-3.9-5.1l-3.9,5.1h-1.3l4.6-5.9l-4.3-5.6H39l3.7,4.8l3.7-4.8h1.2l-4.3,5.6l4.6,5.9H46.7z"/>
			<path class="st2" d="M62.4,167.5c0,3.5-2.4,5.8-5.7,5.8c-2,0-3.7-1-4.7-2.7v6.9H51v-15.8H52v2.7c0.9-1.8,2.6-2.8,4.7-2.8
				C60,161.6,62.4,164,62.4,167.5z M61.3,167.5c0-2.9-2-4.8-4.6-4.8c-2.6,0-4.6,2-4.6,4.8c0,2.9,2,4.8,4.6,4.8
				C59.3,172.3,61.3,170.3,61.3,167.5z"/>
			<path class="st2" d="M74.3,165.9v7.3h-1.1v-2c-0.7,1.3-2.1,2.1-4.1,2.1c-2.6,0-4.1-1.3-4.1-3.3c0-1.7,1.1-3.2,4.3-3.2h3.9v-0.9
				c0-2.1-1.2-3.3-3.4-3.3c-1.6,0-3,0.6-4,1.5l-0.6-0.8c1.1-1,2.8-1.6,4.6-1.6C72.7,161.6,74.3,163.1,74.3,165.9z M73.2,169.8v-2.2
				h-3.9c-2.4,0-3.2,1-3.2,2.3c0,1.5,1.2,2.4,3.2,2.4C71.2,172.4,72.6,171.5,73.2,169.8z"/>
			<path class="st2" d="M89.3,166.5v6.7h-1.1v-6.6c0-2.6-1.4-4-3.7-4c-2.7,0-4.4,1.7-4.4,4.5v6.1h-1.1v-11.5h1.1v2.5
				c0.8-1.6,2.4-2.6,4.6-2.6C87.5,161.6,89.3,163.3,89.3,166.5z"/>
			<path class="st2" d="M104.3,156.9v16.3h-1.1v-2.7c-0.9,1.8-2.6,2.8-4.7,2.8c-3.2,0-5.7-2.4-5.7-5.8c0-3.5,2.4-5.8,5.7-5.8
				c2,0,3.8,1,4.7,2.8v-7.5H104.3z M103.2,167.5c0-2.9-2-4.8-4.6-4.8c-2.6,0-4.6,2-4.6,4.8c0,2.9,2,4.8,4.6,4.8
				C101.2,172.3,103.2,170.3,103.2,167.5z"/>
			<path class="st2" d="M108.8,158c0-0.5,0.4-0.9,0.9-0.9s0.9,0.4,0.9,0.9c0,0.5-0.4,0.9-0.9,0.9S108.8,158.5,108.8,158z
				 M109.2,161.7h1.1v11.5h-1.1V161.7z"/>
			<path class="st2" d="M120.6,161.6v1.1c-0.1,0-0.2,0-0.3,0c-2.6,0-4.1,1.7-4.1,4.5v6h-1.1v-11.5h1.1v2.5
				C116.9,162.6,118.4,161.6,120.6,161.6z"/>
			<path class="st2" d="M148.8,166.5v6.7h-1.1v-6.6c0-2.6-1.3-4-3.6-4c-2.6,0-4.2,1.7-4.2,4.5v6.1h-1.1v-6.6c0-2.6-1.3-4-3.6-4
				c-2.6,0-4.2,1.7-4.2,4.5v6.1h-1.1v-11.5h1.1v2.5c0.7-1.6,2.3-2.6,4.4-2.6c2.1,0,3.6,0.9,4.2,2.8c0.7-1.7,2.4-2.8,4.6-2.8
				C147,161.6,148.8,163.3,148.8,166.5z"/>
			<path class="st2" d="M163.3,167.7h-9.9c0.1,2.7,2.1,4.6,4.9,4.6c1.5,0,2.8-0.5,3.7-1.6l0.6,0.7c-1,1.2-2.6,1.9-4.3,1.9
				c-3.5,0-5.9-2.4-5.9-5.8c0-3.4,2.4-5.8,5.5-5.8c3.1,0,5.5,2.4,5.5,5.8C163.3,167.5,163.3,167.6,163.3,167.7z M153.4,166.9h8.8
				c-0.2-2.5-2-4.3-4.4-4.3C155.4,162.6,153.6,164.4,153.4,166.9z"/>
			<path class="st2" d="M185.8,166.5v6.7h-1.1v-6.6c0-2.6-1.3-4-3.6-4c-2.6,0-4.2,1.7-4.2,4.5v6.1h-1.1v-6.6c0-2.6-1.3-4-3.6-4
				c-2.6,0-4.2,1.7-4.2,4.5v6.1h-1.1v-11.5h1.1v2.5c0.7-1.6,2.3-2.6,4.4-2.6c2.1,0,3.6,0.9,4.2,2.8c0.7-1.7,2.4-2.8,4.6-2.8
				C184,161.6,185.8,163.3,185.8,166.5z"/>
			<path class="st2" d="M189.3,167.5c0-3.4,2.4-5.8,5.7-5.8c3.3,0,5.7,2.4,5.7,5.8c0,3.4-2.4,5.8-5.7,5.8
				C191.8,173.3,189.3,170.9,189.3,167.5z M199.7,167.5c0-2.9-2-4.8-4.6-4.8c-2.6,0-4.6,2-4.6,4.8c0,2.9,2,4.8,4.6,4.8
				C197.7,172.3,199.7,170.3,199.7,167.5z"/>
			<path class="st2" d="M209.9,161.6v1.1c-0.1,0-0.2,0-0.3,0c-2.6,0-4.1,1.7-4.1,4.5v6h-1.1v-11.5h1.1v2.5
				C206.2,162.6,207.7,161.6,209.9,161.6z"/>
			<path class="st2" d="M212.8,158c0-0.5,0.4-0.9,0.9-0.9s0.9,0.4,0.9,0.9c0,0.5-0.4,0.9-0.9,0.9S212.8,158.5,212.8,158z
				 M213.1,161.7h1.1v11.5h-1.1V161.7z"/>
			<path class="st2" d="M227.4,165.9v7.3h-1.1v-2c-0.7,1.3-2.1,2.1-4.1,2.1c-2.6,0-4.1-1.3-4.1-3.3c0-1.7,1.1-3.2,4.3-3.2h3.9v-0.9
				c0-2.1-1.2-3.3-3.4-3.3c-1.6,0-3,0.6-4,1.5l-0.6-0.8c1.1-1,2.8-1.6,4.6-1.6C225.8,161.6,227.4,163.1,227.4,165.9z M226.3,169.8
				v-2.2h-3.9c-2.4,0-3.2,1-3.2,2.3c0,1.5,1.2,2.4,3.2,2.4C224.3,172.4,225.6,171.5,226.3,169.8z"/>
			<path class="st2" d="M35.8,178.9v16.3h-1.1v-2.7c-0.9,1.8-2.6,2.8-4.7,2.8c-3.2,0-5.7-2.4-5.7-5.8c0-3.5,2.4-5.8,5.7-5.8
				c2,0,3.8,1,4.7,2.8v-7.5H35.8z M34.7,189.5c0-2.9-2-4.8-4.6-4.8c-2.6,0-4.6,2-4.6,4.8s2,4.8,4.6,4.8
				C32.8,194.3,34.7,192.3,34.7,189.5z"/>
			<path class="st2" d="M50.4,189.7h-9.9c0.1,2.7,2.1,4.6,4.9,4.6c1.5,0,2.8-0.5,3.7-1.6l0.6,0.7c-1,1.2-2.6,1.9-4.3,1.9
				c-3.5,0-5.9-2.4-5.9-5.8c0-3.4,2.4-5.8,5.5-5.8c3.1,0,5.5,2.4,5.5,5.8C50.4,189.5,50.4,189.6,50.4,189.7z M40.6,188.9h8.8
				c-0.2-2.5-2-4.3-4.4-4.3C42.5,184.6,40.7,186.4,40.6,188.9z"/>
			<path class="st2" d="M54.1,178.9h1.1v16.3h-1.1V178.9z"/>
			<path class="st2" d="M64.6,189.5c0-3.4,2.4-5.8,5.8-5.8c1.8,0,3.4,0.7,4.4,2.1l-0.8,0.6c-0.8-1.2-2.1-1.7-3.5-1.7
				c-2.7,0-4.7,1.9-4.7,4.8s2,4.8,4.7,4.8c1.4,0,2.7-0.6,3.5-1.7l0.8,0.6c-0.9,1.4-2.5,2.1-4.4,2.1
				C67.1,195.3,64.6,192.9,64.6,189.5z"/>
			<path class="st2" d="M87.8,189.7H78c0.1,2.7,2.1,4.6,4.9,4.6c1.5,0,2.8-0.5,3.7-1.6l0.6,0.7c-1,1.2-2.6,1.9-4.3,1.9
				c-3.5,0-5.9-2.4-5.9-5.8c0-3.4,2.4-5.8,5.5-5.8c3.1,0,5.5,2.4,5.5,5.8C87.9,189.5,87.8,189.6,87.8,189.7z M78,188.9h8.8
				c-0.2-2.5-2-4.3-4.4-4.3C79.9,184.6,78.1,186.4,78,188.9z"/>
			<path class="st2" d="M91.5,178.9h1.1v16.3h-1.1V178.9z"/>
			<path class="st2" d="M107.5,183.7v11.5h-1.1v-2.5c-0.7,1.6-2.3,2.6-4.3,2.6c-2.9,0-4.8-1.7-4.8-4.9v-6.7h1.1v6.6
				c0,2.6,1.4,4,3.8,4c2.6,0,4.2-1.7,4.2-4.5v-6.1H107.5z"/>
			<path class="st2" d="M112.4,178.9h1.1v16.3h-1.1V178.9z"/>
			<path class="st2" d="M126.6,187.9v7.3h-1.1v-2c-0.7,1.3-2.1,2.1-4.1,2.1c-2.6,0-4.1-1.3-4.1-3.3c0-1.7,1.1-3.2,4.3-3.2h3.9v-0.9
				c0-2.1-1.2-3.3-3.4-3.3c-1.6,0-3,0.6-4,1.5l-0.6-0.8c1.1-1,2.8-1.6,4.6-1.6C125.1,183.6,126.6,185.1,126.6,187.9z M125.5,191.8
				v-2.2h-3.9c-2.4,0-3.2,1-3.2,2.3c0,1.5,1.2,2.4,3.2,2.4C123.5,194.4,124.9,193.5,125.5,191.8z"/>
			<path class="st2" d="M136.8,183.6v1.1c-0.1,0-0.2,0-0.3,0c-2.6,0-4.1,1.7-4.1,4.5v6h-1.1v-11.5h1.1v2.5
				C133.2,184.6,134.7,183.6,136.8,183.6z"/>
			<path class="st2" d="M144.9,189.5c0-3.4,2.4-5.8,5.7-5.8c3.3,0,5.7,2.4,5.7,5.8c0,3.4-2.4,5.8-5.7,5.8
				C147.3,195.3,144.9,192.9,144.9,189.5z M155.3,189.5c0-2.9-2-4.8-4.6-4.8c-2.6,0-4.6,2-4.6,4.8s2,4.8,4.6,4.8
				C153.3,194.3,155.3,192.3,155.3,189.5z"/>
			<path class="st2" d="M171.6,194.5c-0.6,0.6-1.5,0.8-2.4,0.8c-2,0-3.1-1.2-3.1-3.1v-7.5H164v-0.9h2.1v-2.5h1.1v2.5h3.7v0.9h-3.7
				v7.4c0,1.5,0.7,2.3,2.1,2.3c0.7,0,1.3-0.2,1.8-0.6L171.6,194.5z"/>
			<path class="st2" d="M183.2,187.9v7.3h-1.1v-2c-0.7,1.3-2.1,2.1-4.1,2.1c-2.6,0-4.1-1.3-4.1-3.3c0-1.7,1.1-3.2,4.3-3.2h3.9v-0.9
				c0-2.1-1.2-3.3-3.4-3.3c-1.6,0-3,0.6-4,1.5l-0.6-0.8c1.1-1,2.8-1.6,4.6-1.6C181.6,183.6,183.2,185.1,183.2,187.9z M182.1,191.8
				v-2.2h-3.9c-2.4,0-3.2,1-3.2,2.3c0,1.5,1.2,2.4,3.2,2.4C180.1,194.4,181.4,193.5,182.1,191.8z"/>
			<path class="st2" d="M199.4,189.5c0,3.4-2.4,5.8-5.7,5.8c-2.1,0-3.8-1-4.7-2.8v2.7h-1.1v-16.3h1.1v7.5c0.9-1.7,2.6-2.7,4.7-2.7
				C196.9,183.6,199.4,186,199.4,189.5z M198.3,189.5c0-2.9-2-4.8-4.6-4.8c-2.6,0-4.6,2-4.6,4.8s2,4.8,4.6,4.8
				C196.3,194.3,198.3,192.3,198.3,189.5z"/>
			<path class="st2" d="M203,178.9h1.1v16.3H203V178.9z"/>
			<path class="st2" d="M218.6,189.7h-9.9c0.1,2.7,2.1,4.6,4.9,4.6c1.5,0,2.8-0.5,3.7-1.6l0.6,0.7c-1,1.2-2.6,1.9-4.3,1.9
				c-3.5,0-5.9-2.4-5.9-5.8c0-3.4,2.4-5.8,5.5-5.8c3.1,0,5.5,2.4,5.5,5.8C218.7,189.5,218.6,189.6,218.6,189.7z M208.8,188.9h8.8
				c-0.2-2.5-2-4.3-4.4-4.3C210.7,184.6,209,186.4,208.8,188.9z"/>
			<path class="st2" d="M228,194.5c-0.6,0.6-1.5,0.8-2.4,0.8c-2,0-3.1-1.2-3.1-3.1v-7.5h-2.1v-0.9h2.1v-2.5h1.1v2.5h3.7v0.9h-3.7
				v7.4c0,1.5,0.7,2.3,2.1,2.3c0.7,0,1.3-0.2,1.8-0.6L228,194.5z"/>
		</g>
	</g>
</g>
</svg>
