<?xml version="1.0" encoding="UTF-8"?>
<svg id="Capa_2" data-name="Capa 2" xmlns="http://www.w3.org/2000/svg" viewBox="0 0 252.29 228">
  <defs>
    <style>
      .cls-1 {
        fill: #fff;
      }

      .cls-2 {
        fill: #ff5824;
      }

      .cls-3 {
        fill: #333;
      }
    </style>
  </defs>
  <g id="Capa_2-2" data-name="Capa 2">
    <g>
      <path class="cls-3" d="m6.38,0h239.52c3.52,0,6.38,2.86,6.38,6.38v209.11H0V6.38C0,2.86,2.86,0,6.38,0Z"/>
      <rect class="cls-2" y="215.49" width="252.29" height="12.51"/>
      <g>
        <path class="cls-1" d="m35.9,171.69v1.01h-10.63v-15.4h10.3v1.01h-9.18v6.07h8.21v.99h-8.21v6.31h9.51Z"/>
        <path class="cls-1" d="m46.79,172.7l-3.94-5.13-3.94,5.13h-1.25l4.55-5.92-4.31-5.57h1.25l3.7,4.77,3.7-4.77h1.23l-4.31,5.57,4.62,5.92h-1.3Z"/>
        <path class="cls-1" d="m62.57,166.96c0,3.46-2.44,5.83-5.68,5.83-2.02,0-3.74-.99-4.66-2.71v6.89h-1.1v-15.75h1.06v2.71c.9-1.76,2.64-2.79,4.71-2.79,3.23,0,5.68,2.4,5.68,5.83Zm-1.1,0c0-2.88-2-4.84-4.64-4.84s-4.62,1.96-4.62,4.84,1.98,4.84,4.62,4.84,4.64-1.96,4.64-4.84Z"/>
        <path class="cls-1" d="m74.45,165.42v7.28h-1.06v-2.05c-.73,1.32-2.13,2.13-4.14,2.13-2.57,0-4.14-1.32-4.14-3.28,0-1.74,1.1-3.21,4.29-3.21h3.94v-.92c0-2.13-1.17-3.28-3.41-3.28-1.58,0-3.01.59-3.96,1.45l-.55-.79c1.14-1.01,2.82-1.63,4.6-1.63,2.84,0,4.42,1.45,4.42,4.29Zm-1.1,3.89v-2.16h-3.92c-2.38,0-3.21.99-3.21,2.31,0,1.5,1.17,2.42,3.19,2.42s3.28-.92,3.94-2.57Z"/>
        <path class="cls-1" d="m89.47,165.99v6.71h-1.1v-6.62c0-2.6-1.39-3.96-3.72-3.96-2.71,0-4.36,1.74-4.36,4.47v6.12h-1.1v-11.49h1.06v2.49c.77-1.61,2.38-2.58,4.55-2.58,2.79,0,4.66,1.65,4.66,4.86Z"/>
        <path class="cls-1" d="m104.45,156.38v16.33h-1.08v-2.71c-.9,1.78-2.64,2.79-4.71,2.79-3.23,0-5.68-2.4-5.68-5.83s2.44-5.83,5.68-5.83c2.05,0,3.76,1.01,4.69,2.75v-7.5h1.1Zm-1.1,10.58c0-2.88-1.98-4.84-4.62-4.84s-4.62,1.96-4.62,4.84,1.98,4.84,4.62,4.84,4.62-1.96,4.62-4.84Z"/>
        <path class="cls-1" d="m108.96,157.54c0-.48.4-.9.9-.9s.9.4.9.88-.4.9-.9.9-.9-.4-.9-.88Zm.35,3.67h1.1v11.49h-1.1v-11.49Z"/>
        <path class="cls-1" d="m120.71,161.13v1.08c-.09,0-.18-.02-.26-.02-2.55,0-4.07,1.69-4.07,4.53v5.99h-1.1v-11.49h1.06v2.51c.7-1.67,2.22-2.6,4.38-2.6Z"/>
        <path class="cls-1" d="m148.92,165.99v6.71h-1.1v-6.62c0-2.6-1.34-3.96-3.59-3.96-2.6,0-4.2,1.74-4.2,4.47v6.12h-1.1v-6.62c0-2.6-1.34-3.96-3.59-3.96-2.6,0-4.2,1.74-4.2,4.47v6.12h-1.1v-11.49h1.06v2.46c.75-1.61,2.31-2.55,4.4-2.55s3.59.95,4.2,2.77c.75-1.67,2.42-2.77,4.64-2.77,2.77,0,4.58,1.65,4.58,4.86Z"/>
        <path class="cls-1" d="m163.39,167.22h-9.88c.11,2.73,2.11,4.58,4.86,4.58,1.45,0,2.79-.53,3.67-1.61l.64.73c-1.01,1.23-2.6,1.87-4.33,1.87-3.48,0-5.92-2.42-5.92-5.83s2.35-5.83,5.5-5.83,5.48,2.38,5.48,5.79c0,.09-.02.2-.02.31Zm-9.86-.86h8.8c-.15-2.49-1.96-4.27-4.4-4.27s-4.22,1.76-4.4,4.27Z"/>
        <path class="cls-1" d="m185.92,165.99v6.71h-1.1v-6.62c0-2.6-1.34-3.96-3.59-3.96-2.6,0-4.2,1.74-4.2,4.47v6.12h-1.1v-6.62c0-2.6-1.34-3.96-3.59-3.96-2.6,0-4.2,1.74-4.2,4.47v6.12h-1.1v-11.49h1.06v2.46c.75-1.61,2.31-2.55,4.4-2.55s3.59.95,4.2,2.77c.75-1.67,2.42-2.77,4.64-2.77,2.77,0,4.58,1.65,4.58,4.86Z"/>
        <path class="cls-1" d="m189.44,166.96c0-3.41,2.44-5.83,5.74-5.83s5.74,2.42,5.74,5.83-2.44,5.83-5.74,5.83-5.74-2.42-5.74-5.83Zm10.36,0c0-2.88-1.98-4.84-4.62-4.84s-4.62,1.96-4.62,4.84,1.98,4.84,4.62,4.84,4.62-1.96,4.62-4.84Z"/>
        <path class="cls-1" d="m209.98,161.13v1.08c-.09,0-.18-.02-.26-.02-2.55,0-4.07,1.69-4.07,4.53v5.99h-1.1v-11.49h1.06v2.51c.7-1.67,2.22-2.6,4.38-2.6Z"/>
        <path class="cls-1" d="m212.89,157.54c0-.48.4-.9.9-.9s.9.4.9.88-.4.9-.9.9-.9-.4-.9-.88Zm.35,3.67h1.1v11.49h-1.1v-11.49Z"/>
        <path class="cls-1" d="m227.5,165.42v7.28h-1.06v-2.05c-.73,1.32-2.13,2.13-4.14,2.13-2.57,0-4.14-1.32-4.14-3.28,0-1.74,1.1-3.21,4.29-3.21h3.94v-.92c0-2.13-1.17-3.28-3.41-3.28-1.58,0-3.01.59-3.96,1.45l-.55-.79c1.14-1.01,2.82-1.63,4.6-1.63,2.84,0,4.42,1.45,4.42,4.29Zm-1.1,3.89v-2.16h-3.92c-2.38,0-3.21.99-3.21,2.31,0,1.5,1.17,2.42,3.19,2.42s3.28-.92,3.94-2.57Z"/>
        <path class="cls-1" d="m44.65,188.96c0-3.43,2.44-5.83,5.81-5.83,1.83,0,3.41.7,4.36,2.11l-.81.59c-.84-1.17-2.11-1.72-3.54-1.72-2.71,0-4.69,1.94-4.69,4.84s1.98,4.84,4.69,4.84c1.43,0,2.71-.55,3.54-1.72l.81.59c-.95,1.39-2.53,2.11-4.36,2.11-3.37,0-5.81-2.42-5.81-5.83Z"/>
        <path class="cls-1" d="m67.84,189.22h-9.88c.11,2.73,2.11,4.58,4.86,4.58,1.45,0,2.79-.53,3.67-1.61l.64.73c-1.01,1.23-2.6,1.87-4.33,1.87-3.48,0-5.92-2.42-5.92-5.83s2.35-5.83,5.5-5.83,5.48,2.38,5.48,5.79c0,.09-.02.2-.02.31Zm-9.86-.86h8.8c-.15-2.49-1.96-4.27-4.4-4.27s-4.22,1.76-4.4,4.27Z"/>
        <path class="cls-1" d="m71.49,178.38h1.1v16.33h-1.1v-16.33Z"/>
        <path class="cls-1" d="m87.5,183.22v11.49h-1.06v-2.46c-.75,1.61-2.31,2.55-4.33,2.55-2.93,0-4.8-1.65-4.8-4.86v-6.71h1.1v6.62c0,2.6,1.39,3.96,3.78,3.96,2.6,0,4.2-1.74,4.2-4.47v-6.12h1.1Z"/>
        <path class="cls-1" d="m92.39,178.38h1.1v16.33h-1.1v-16.33Z"/>
        <path class="cls-1" d="m106.64,187.42v7.28h-1.06v-2.05c-.73,1.32-2.13,2.13-4.14,2.13-2.57,0-4.14-1.32-4.14-3.28,0-1.74,1.1-3.21,4.29-3.21h3.94v-.92c0-2.13-1.17-3.28-3.41-3.28-1.58,0-3.01.59-3.96,1.45l-.55-.79c1.14-1.01,2.82-1.63,4.6-1.63,2.84,0,4.42,1.45,4.42,4.29Zm-1.1,3.89v-2.16h-3.92c-2.38,0-3.21.99-3.21,2.31,0,1.5,1.17,2.42,3.19,2.42s3.28-.92,3.94-2.57Z"/>
        <path class="cls-1" d="m116.83,183.13v1.08c-.09,0-.18-.02-.26-.02-2.55,0-4.07,1.69-4.07,4.53v5.99h-1.1v-11.49h1.06v2.51c.7-1.67,2.22-2.6,4.38-2.6Z"/>
        <path class="cls-1" d="m124.9,188.96c0-3.41,2.44-5.83,5.74-5.83s5.74,2.42,5.74,5.83-2.44,5.83-5.74,5.83-5.74-2.42-5.74-5.83Zm10.36,0c0-2.88-1.98-4.84-4.62-4.84s-4.62,1.96-4.62,4.84,1.98,4.84,4.62,4.84,4.62-1.96,4.62-4.84Z"/>
        <path class="cls-1" d="m151.59,193.97c-.57.55-1.5.81-2.35.81-2.02,0-3.12-1.19-3.12-3.12v-7.5h-2.11v-.95h2.11v-2.51h1.1v2.51h3.65v.95h-3.65v7.39c0,1.47.73,2.29,2.13,2.29.68,0,1.32-.22,1.78-.64l.46.77Z"/>
        <path class="cls-1" d="m163.16,187.42v7.28h-1.06v-2.05c-.73,1.32-2.13,2.13-4.14,2.13-2.57,0-4.14-1.32-4.14-3.28,0-1.74,1.1-3.21,4.29-3.21h3.94v-.92c0-2.13-1.17-3.28-3.41-3.28-1.58,0-3.01.59-3.96,1.45l-.55-.79c1.14-1.01,2.82-1.63,4.6-1.63,2.84,0,4.42,1.45,4.42,4.29Zm-1.1,3.89v-2.16h-3.92c-2.38,0-3.21.99-3.21,2.31,0,1.5,1.17,2.42,3.19,2.42s3.28-.92,3.94-2.57Z"/>
        <path class="cls-1" d="m179.35,188.96c0,3.43-2.44,5.83-5.68,5.83-2.07,0-3.81-1.03-4.71-2.79v2.71h-1.06v-16.33h1.1v7.46c.92-1.72,2.64-2.71,4.66-2.71,3.23,0,5.68,2.38,5.68,5.83Zm-1.1,0c0-2.88-2-4.84-4.64-4.84s-4.62,1.96-4.62,4.84,1.98,4.84,4.62,4.84,4.64-1.96,4.64-4.84Z"/>
        <path class="cls-1" d="m182.98,178.38h1.1v16.33h-1.1v-16.33Z"/>
        <path class="cls-1" d="m198.65,189.22h-9.88c.11,2.73,2.11,4.58,4.86,4.58,1.45,0,2.79-.53,3.67-1.61l.64.73c-1.01,1.23-2.6,1.87-4.33,1.87-3.48,0-5.92-2.42-5.92-5.83s2.35-5.83,5.5-5.83,5.48,2.38,5.48,5.79c0,.09-.02.2-.02.31Zm-9.86-.86h8.8c-.15-2.49-1.96-4.27-4.4-4.27s-4.22,1.76-4.4,4.27Z"/>
        <path class="cls-1" d="m207.99,193.97c-.57.55-1.5.81-2.35.81-2.02,0-3.12-1.19-3.12-3.12v-7.5h-2.11v-.95h2.11v-2.51h1.1v2.51h3.65v.95h-3.65v7.39c0,1.47.73,2.29,2.13,2.29.68,0,1.32-.22,1.78-.64l.46.77Z"/>
      </g>
      <g>
        <path class="cls-2" d="m156.92,79.78c0,13.57,0,27.15,0,40.72,0,7.75-5.32,13.09-13.05,13.09-11.86.01-23.73.01-35.59,0-7.51,0-12.91-5.41-12.91-12.95-.01-27.2-.01-54.39,0-81.59,0-7.85,5.3-13.17,13.13-13.17,11.72-.01,23.43-.02,35.15,0,8.06.02,13.27,5.26,13.27,13.31,0,13.52,0,27.05,0,40.57Zm-3.42-33.31c-.56-.03-.99-.06-1.42-.06-17.28,0-34.56.01-51.83-.03-1.35,0-1.59.45-1.59,1.68.04,19.92.04,39.83,0,59.75,0,1.41.37,1.79,1.78,1.79,17.18-.05,34.36-.03,51.54-.03h1.53v-63.09Zm-.1,66.51h-54.5c0,3.41-.3,6.75.08,10.01.45,3.96,4.29,7.16,8.28,7.18,12.59.06,25.18.07,37.78,0,4.07-.02,7.86-3.28,8.3-7.33.35-3.22.07-6.5.07-9.85Zm.2-69.93c0-1.47,0-2.77,0-4.08-.05-5.9-3.83-9.67-9.75-9.68-11.81-.02-23.62-.01-35.43,0-.87,0-1.78,0-2.61.23-6.37,1.73-7.92,7.07-6.88,13.54h54.67Z"/>
        <path class="cls-2" d="m126.17,116.62c2.73,0,4.92,2.16,4.95,4.89.03,2.75-2.27,5.08-4.99,5.05-2.71-.03-4.94-2.26-4.96-4.94-.02-2.79,2.18-4.99,5-5Zm-1.55,5.1c.24,1.06,1.5,1.67,2.44,1.14.55-.31.77-.79.63-1.37-.14-.61-.96-1.38-1.57-1.48-.96-.15-1.7.66-1.51,1.64,0,.02,0,.05.01.07Z"/>
        <path class="cls-2" d="m126.29,33.12c1.51,0,3.02,0,4.54,0,1.17,0,1.93.57,1.89,1.73-.03,1.08-.77,1.58-1.89,1.58-3.12-.02-6.24-.02-9.36,0-1.19,0-1.91-.55-1.89-1.73.02-1.12.8-1.58,1.88-1.58,1.61.01,3.22,0,4.83,0Z"/>
      </g>
    </g>
  </g>
</svg>