<?xml version="1.0" encoding="UTF-8"?>
<svg id="Capa_2" data-name="Capa 2" xmlns="http://www.w3.org/2000/svg" viewBox="0 0 252.29 228">
  <defs>
    <style>
      .cls-1 {
        fill: #fff;
      }

      .cls-2 {
        fill: #333;
      }

      .cls-3 {
        fill: #2ec7ce;
      }
    </style>
  </defs>
  <g id="Capa_2-2" data-name="Capa 2">
    <g>
      <path class="cls-2" d="m6.38,0h239.52c3.52,0,6.38,2.86,6.38,6.38v209.11H0V6.38C0,2.86,2.86,0,6.38,0Z"/>
      <rect class="cls-3" y="215.49" width="252.29" height="12.51"/>
      <g>
        <path class="cls-1" d="m61.41,172.7l-3.67-5.15c-.48.07-.97.11-1.5.11h-4.4v5.04h-1.12v-15.4h5.52c3.87,0,6.21,1.94,6.21,5.19,0,2.44-1.32,4.14-3.61,4.82l3.85,5.39h-1.28Zm-5.17-6.03c3.3,0,5.06-1.54,5.06-4.18s-1.76-4.18-5.06-4.18h-4.4v8.36h4.4Z"/>
        <path class="cls-1" d="m76.13,167.22h-9.88c.11,2.73,2.11,4.58,4.86,4.58,1.45,0,2.79-.53,3.67-1.61l.64.73c-1.01,1.23-2.6,1.87-4.33,1.87-3.48,0-5.92-2.42-5.92-5.83s2.35-5.83,5.5-5.83,5.48,2.38,5.48,5.79c0,.09-.02.2-.02.31Zm-9.86-.86h8.8c-.15-2.49-1.96-4.27-4.4-4.27s-4.22,1.76-4.4,4.27Z"/>
        <path class="cls-1" d="m91.22,166.96c0,3.46-2.44,5.83-5.68,5.83-2.02,0-3.74-.99-4.67-2.71v6.89h-1.1v-15.75h1.06v2.71c.9-1.76,2.64-2.79,4.71-2.79,3.23,0,5.68,2.4,5.68,5.83Zm-1.1,0c0-2.88-2-4.84-4.64-4.84s-4.62,1.96-4.62,4.84,1.98,4.84,4.62,4.84,4.64-1.96,4.64-4.84Z"/>
        <path class="cls-1" d="m100.28,161.13v1.08c-.09,0-.18-.02-.26-.02-2.55,0-4.07,1.69-4.07,4.53v5.99h-1.1v-11.49h1.06v2.51c.7-1.67,2.22-2.6,4.38-2.6Z"/>
        <path class="cls-1" d="m102.18,166.96c0-3.41,2.44-5.83,5.74-5.83s5.74,2.42,5.74,5.83-2.44,5.83-5.74,5.83-5.74-2.42-5.74-5.83Zm10.36,0c0-2.88-1.98-4.84-4.62-4.84s-4.62,1.96-4.62,4.84,1.98,4.84,4.62,4.84,4.62-1.96,4.62-4.84Z"/>
        <path class="cls-1" d="m127.5,156.38v16.33h-1.08v-2.71c-.9,1.78-2.64,2.79-4.71,2.79-3.23,0-5.68-2.4-5.68-5.83s2.44-5.83,5.68-5.83c2.05,0,3.76,1.01,4.69,2.75v-7.5h1.1Zm-1.1,10.58c0-2.88-1.98-4.84-4.62-4.84s-4.62,1.96-4.62,4.84,1.98,4.84,4.62,4.84,4.62-1.96,4.62-4.84Z"/>
        <path class="cls-1" d="m142.41,161.22v11.49h-1.06v-2.46c-.75,1.61-2.31,2.55-4.33,2.55-2.93,0-4.8-1.65-4.8-4.86v-6.71h1.1v6.62c0,2.6,1.39,3.96,3.78,3.96,2.6,0,4.2-1.74,4.2-4.47v-6.12h1.1Z"/>
        <path class="cls-1" d="m146.04,166.96c0-3.43,2.44-5.83,5.81-5.83,1.83,0,3.41.7,4.36,2.11l-.81.59c-.84-1.17-2.11-1.72-3.54-1.72-2.71,0-4.69,1.94-4.69,4.84s1.98,4.84,4.69,4.84c1.43,0,2.71-.55,3.54-1.72l.81.59c-.95,1.39-2.53,2.11-4.36,2.11-3.37,0-5.81-2.42-5.81-5.83Z"/>
        <path class="cls-1" d="m158.27,166.96c0-3.43,2.44-5.83,5.81-5.83,1.83,0,3.41.7,4.36,2.11l-.81.59c-.84-1.17-2.11-1.72-3.54-1.72-2.71,0-4.69,1.94-4.69,4.84s1.98,4.84,4.69,4.84c1.43,0,2.71-.55,3.54-1.72l.81.59c-.95,1.39-2.53,2.11-4.36,2.11-3.37,0-5.81-2.42-5.81-5.83Z"/>
        <path class="cls-1" d="m171.61,157.54c0-.48.4-.9.9-.9s.9.4.9.88-.4.9-.9.9-.9-.4-.9-.88Zm.35,3.67h1.1v11.49h-1.1v-11.49Z"/>
        <path class="cls-1" d="m176.67,166.96c0-3.41,2.44-5.83,5.74-5.83s5.74,2.42,5.74,5.83-2.44,5.83-5.74,5.83-5.74-2.42-5.74-5.83Zm10.36,0c0-2.88-1.98-4.84-4.62-4.84s-4.62,1.96-4.62,4.84,1.98,4.84,4.62,4.84,4.62-1.96,4.62-4.84Zm-2.82-10.21h1.58l-3.45,2.6h-1.19l3.06-2.6Z"/>
        <path class="cls-1" d="m202.06,165.99v6.71h-1.1v-6.62c0-2.6-1.39-3.96-3.72-3.96-2.71,0-4.36,1.74-4.36,4.47v6.12h-1.1v-11.49h1.06v2.49c.77-1.61,2.38-2.58,4.55-2.58,2.79,0,4.67,1.65,4.67,4.86Z"/>
        <path class="cls-1" d="m53,178.38v16.33h-1.08v-2.71c-.9,1.78-2.64,2.79-4.71,2.79-3.23,0-5.68-2.4-5.68-5.83s2.44-5.83,5.68-5.83c2.05,0,3.76,1.01,4.69,2.75v-7.5h1.1Zm-1.1,10.58c0-2.88-1.98-4.84-4.62-4.84s-4.62,1.96-4.62,4.84,1.98,4.84,4.62,4.84,4.62-1.96,4.62-4.84Z"/>
        <path class="cls-1" d="m67.56,189.22h-9.88c.11,2.73,2.11,4.58,4.86,4.58,1.45,0,2.79-.53,3.67-1.61l.64.73c-1.01,1.23-2.6,1.87-4.33,1.87-3.48,0-5.92-2.42-5.92-5.83s2.35-5.83,5.5-5.83,5.48,2.38,5.48,5.79c0,.09-.02.2-.02.31Zm-9.86-.86h8.8c-.15-2.49-1.96-4.27-4.4-4.27s-4.22,1.76-4.4,4.27Z"/>
        <path class="cls-1" d="m89.74,179.3l-6.87,15.4h-1.12l-6.87-15.4h1.23l6.23,13.95,6.23-13.95h1.17Z"/>
        <path class="cls-1" d="m91.6,179.54c0-.48.4-.9.9-.9s.9.4.9.88-.4.9-.9.9-.9-.4-.9-.88Zm.35,3.67h1.1v11.49h-1.1v-11.49Z"/>
        <path class="cls-1" d="m108.13,178.38v16.33h-1.08v-2.71c-.9,1.78-2.64,2.79-4.71,2.79-3.23,0-5.68-2.4-5.68-5.83s2.44-5.83,5.68-5.83c2.05,0,3.76,1.01,4.69,2.75v-7.5h1.1Zm-1.1,10.58c0-2.88-1.98-4.84-4.62-4.84s-4.62,1.96-4.62,4.84,1.98,4.84,4.62,4.84,4.62-1.96,4.62-4.84Z"/>
        <path class="cls-1" d="m122.69,189.22h-9.88c.11,2.73,2.11,4.58,4.86,4.58,1.45,0,2.79-.53,3.67-1.61l.64.73c-1.01,1.23-2.6,1.87-4.33,1.87-3.48,0-5.92-2.42-5.92-5.83s2.35-5.83,5.5-5.83,5.48,2.38,5.48,5.79c0,.09-.02.2-.02.31Zm-9.86-.86h8.8c-.15-2.49-1.96-4.27-4.4-4.27s-4.22,1.76-4.4,4.27Z"/>
        <path class="cls-1" d="m125.09,188.96c0-3.41,2.44-5.83,5.74-5.83s5.74,2.42,5.74,5.83-2.44,5.83-5.74,5.83-5.74-2.42-5.74-5.83Zm10.36,0c0-2.88-1.98-4.84-4.62-4.84s-4.62,1.96-4.62,4.84,1.98,4.84,4.62,4.84,4.62-1.96,4.62-4.84Z"/>
        <path class="cls-1" d="m135.93,198.29l.44-.81c.46.42,1.12.64,1.87.64,1.34,0,2.07-.81,2.07-2.31v-12.58h1.1v12.63c0,1.94-1.1,3.21-3.1,3.21-.92,0-1.83-.24-2.38-.77Zm4.03-18.75c0-.48.4-.9.9-.9s.9.4.9.88-.4.9-.9.9-.9-.4-.9-.88Z"/>
        <path class="cls-1" d="m156.33,183.22v11.49h-1.06v-2.46c-.75,1.61-2.31,2.55-4.33,2.55-2.93,0-4.8-1.65-4.8-4.86v-6.71h1.1v6.62c0,2.6,1.39,3.96,3.78,3.96,2.6,0,4.2-1.74,4.2-4.47v-6.12h1.1Z"/>
        <path class="cls-1" d="m170.91,189.22h-9.88c.11,2.73,2.11,4.58,4.86,4.58,1.45,0,2.79-.53,3.67-1.61l.64.73c-1.01,1.23-2.6,1.87-4.33,1.87-3.48,0-5.92-2.42-5.92-5.83s2.35-5.83,5.5-5.83,5.48,2.38,5.48,5.79c0,.09-.02.2-.02.31Zm-9.86-.86h8.8c-.15-2.49-1.96-4.27-4.4-4.27s-4.22,1.76-4.4,4.27Z"/>
        <path class="cls-1" d="m184.91,183.22v10.25c0,3.85-1.87,5.59-5.57,5.59-2.09,0-4.09-.66-5.26-1.83l.59-.84c1.14,1.06,2.79,1.67,4.64,1.67,3.06,0,4.49-1.41,4.49-4.47v-1.94c-.95,1.67-2.71,2.62-4.77,2.62-3.26,0-5.72-2.31-5.72-5.59s2.46-5.57,5.72-5.57c2.11,0,3.89.97,4.82,2.68v-2.6h1.06Zm-1.08,5.48c0-2.71-1.98-4.58-4.71-4.58s-4.69,1.87-4.69,4.58,1.98,4.6,4.69,4.6,4.71-1.89,4.71-4.6Z"/>
        <path class="cls-1" d="m188.53,188.96c0-3.41,2.44-5.83,5.74-5.83s5.74,2.42,5.74,5.83-2.44,5.83-5.74,5.83-5.74-2.42-5.74-5.83Zm10.36,0c0-2.88-1.98-4.84-4.62-4.84s-4.62,1.96-4.62,4.84,1.98,4.84,4.62,4.84,4.62-1.96,4.62-4.84Z"/>
        <path class="cls-1" d="m201.95,193.31l.51-.88c.88.75,2.44,1.39,4.14,1.39,2.42,0,3.39-.86,3.39-2.16,0-3.34-7.61-.88-7.61-5.39,0-1.74,1.45-3.15,4.36-3.15,1.45,0,3.04.44,3.94,1.12l-.51.88c-.97-.7-2.22-1.03-3.46-1.03-2.24,0-3.23.92-3.23,2.16,0,3.45,7.61,1.01,7.61,5.39,0,1.87-1.61,3.15-4.53,3.15-1.89,0-3.7-.64-4.6-1.47Z"/>
      </g>
      <g>
        <path class="cls-3" d="m122.07,54.99c0-4.81-.04-9.47.01-14.13.04-3.34.57-6.6,2.11-9.61,2.42-4.73,6.34-7.36,11.57-8.11,2.51-.36,4.98-.25,7.4.62,3.01,1.09,5.1,3.28,6.97,5.74.97,1.27,1.92,2.56,2.92,3.81,2.4,3.03,5.59,4.11,9.36,3.74,1.85-.18,3.61-.61,5.12-1.75,2.34-1.78,3.4-4.3,3.64-7.09.29-3.47.3-6.97.36-10.46.05-3.06.01-14.64.01-17.77h4.57s.06,20.25-.03,25.84c-.05,3.1-.63,6.13-2.1,8.92-2.1,4-5.52,6.1-9.9,6.74-2.64.39-5.28.35-7.86-.47-3.34-1.07-5.71-3.38-7.79-6.06-1.07-1.38-2.1-2.79-3.21-4.14-2.44-2.96-5.65-3.73-9.28-3.06-4.85.9-8.02,4.09-8.77,9.03-.34,2.26-.4,4.57-.44,6.87-.07,3.73-.02,7.46-.02,11.32.36,0,.7,0,1.03,0,11.66,0,23.32-.08,34.98.04,14.53.15,27.93,9.71,33.05,23.32,1.81,4.81,2.64,9.77,2.34,14.87-.48,8.18-3.38,15.43-8.73,21.68-4.26,4.98-9.47,8.64-15.68,10.65-12.78,4.16-24.48,1.93-35-6.43-2.78-2.21-5.06-4.89-7.07-7.8-.19-.27-.62-.52-.95-.52-3-.04-6-.01-9.01-.03-.48,0-.77.14-1.05.56-5.55,8.12-13.1,13.35-22.72,15.43-8.18,1.78-16.13.81-23.59-2.99-10.23-5.22-16.86-13.47-19.29-24.71-2.52-11.66.18-22.23,7.91-31.37,5.56-6.57,12.69-10.56,21.14-12.1,2.25-.41,4.57-.56,6.86-.57,9.94-.05,19.88-.01,29.82,0,.4,0,.8,0,1.31,0Zm4.14,4.67v-.02c-.32,0-.64,0-.96,0-11.6,0-23.2-.02-34.8.06-2.25.01-4.56.2-6.74.71-11.56,2.7-19.32,9.8-23.34,20.89-1.74,4.8-2.08,9.84-1.23,14.9,1.37,8.14,5.2,14.92,11.76,19.94,9.12,6.99,19.26,8.66,30.13,4.91,7.34-2.54,12.93-7.35,16.84-14.08.33-.57.68-.8,1.36-.79,4.6.04,9.21.04,13.81,0,.66,0,1.04.16,1.38.76,2.07,3.67,4.76,6.84,8.15,9.35,9.25,6.84,19.43,8.64,30.25,4.65,15.14-5.58,23.34-20.96,19.92-36.67-3.03-13.93-15.7-24.42-29.97-24.58-12.18-.14-24.36-.03-36.55-.03Z"/>
        <path class="cls-3" d="m86.21,87.12c0-2.57,0-5.01,0-7.45,0-2.05.98-3.06,3.03-3.09.99-.01,1.98-.04,2.97.06,1.52.14,2.39,1.16,2.4,2.69,0,2.27,0,4.54,0,6.82,0,.29,0,.57,0,.98.37,0,.68,0,.99,0,2.27,0,4.54,0,6.82,0,1.61,0,2.67,1.07,2.68,2.68,0,.96,0,1.92,0,2.88,0,1.72-1.1,2.83-2.84,2.83-2.24.01-4.48,0-6.73,0-.28,0-.57.03-.93.04,0,2.55,0,5.05,0,7.55,0,.34-.01.7-.11,1.03-.33,1.09-1.28,1.82-2.48,1.87-1.08.04-2.16.04-3.23,0-1.49-.06-2.56-1.22-2.57-2.77-.02-2.53,0-5.06,0-7.73-1.24,0-2.42,0-3.6,0-1.34,0-2.68.02-4.02,0-1.77-.02-2.87-1.14-2.87-2.91,0-.9,0-1.81,0-2.71.01-1.7,1.06-2.76,2.78-2.77,2.53-.01,5.06,0,7.71,0Z"/>
        <path class="cls-3" d="m172.07,87.11c.47,0,.93,0,1.4,0,1.7.02,2.76,1.05,2.8,2.77.02.96.02,1.92,0,2.88-.03,1.44-.94,2.55-2.35,2.69-1.18.12-2.39.13-3.57.01-1.48-.15-2.35-1.22-2.39-2.74-.03-.96-.02-1.92,0-2.88.04-1.71,1.1-2.73,2.83-2.74.44,0,.87,0,1.31,0h0Z"/>
        <path class="cls-3" d="m165.96,80.72c0,.49,0,.99,0,1.48-.02,1.59-.79,2.6-2.33,2.75-1.24.12-2.51.09-3.74-.06-1.31-.16-2.13-1.24-2.14-2.56-.01-1.05-.01-2.1,0-3.15.02-1.35.93-2.44,2.27-2.53,1.21-.09,2.45-.11,3.65.03,1.59.18,2.32,1.13,2.33,2.73,0,.44,0,.87,0,1.31-.01,0-.03,0-.04,0Z"/>
        <path class="cls-3" d="m147.22,91.25c0-.61-.03-1.22,0-1.83.08-1.23,1.09-2.24,2.32-2.29,1.16-.04,2.33-.05,3.49,0,1.33.04,2.39,1.15,2.42,2.5.02,1.05.01,2.09,0,3.14-.01,1.55-1.11,2.69-2.67,2.74-.93.03-1.86.02-2.79,0-1.76-.04-2.78-1.08-2.79-2.86,0-.47,0-.93,0-1.4,0,0,0,0,.01,0Z"/>
        <path class="cls-3" d="m165.99,101.73c0,.49,0,.99,0,1.48-.02,1.67-1.03,2.73-2.69,2.79-.96.03-1.92.04-2.88,0-1.61-.06-2.68-1.19-2.69-2.81,0-.99,0-1.98,0-2.96.02-1.5,1.07-2.58,2.57-2.61,1.05-.02,2.09-.02,3.14,0,1.47.03,2.49,1.05,2.53,2.54.02.52,0,1.05,0,1.57h0Z"/>
      </g>
    </g>
  </g>
</svg>