<?xml version="1.0" encoding="UTF-8"?>
<svg id="Capa_2" data-name="Capa 2" xmlns="http://www.w3.org/2000/svg" viewBox="0 0 252.29 228">
  <defs>
    <style>
      .cls-1 {
        fill: #fff;
      }

      .cls-2 {
        fill: #333;
      }

      .cls-3 {
        fill: #6a49c4;
      }
    </style>
  </defs>
  <g id="Capa_2-2" data-name="Capa 2">
    <g>
      <path class="cls-2" d="m6.38,0h239.52c3.52,0,6.38,2.86,6.38,6.38v209.11H0V6.38C0,2.86,2.86,0,6.38,0Z"/>
      <rect class="cls-3" y="215.49" width="252.29" height="12.51"/>
      <g>
        <path class="cls-1" d="m32.65,165.07h1.08v5.77c-1.39,1.32-3.39,1.98-5.5,1.98-4.64,0-8.05-3.32-8.05-7.81s3.41-7.81,8.08-7.81c2.22,0,4.18.7,5.54,2.11l-.7.75c-1.34-1.32-2.95-1.83-4.82-1.83-4,0-6.97,2.9-6.97,6.78s2.97,6.78,6.97,6.78c1.63,0,3.12-.4,4.38-1.41v-5.3Z"/>
        <path class="cls-1" d="m43.95,161.13v1.08c-.09,0-.18-.02-.26-.02-2.55,0-4.07,1.69-4.07,4.53v5.99h-1.1v-11.49h1.06v2.51c.7-1.67,2.22-2.6,4.38-2.6Z"/>
        <path class="cls-1" d="m55.51,165.42v7.28h-1.06v-2.05c-.73,1.32-2.13,2.13-4.14,2.13-2.57,0-4.14-1.32-4.14-3.28,0-1.74,1.1-3.21,4.29-3.21h3.94v-.92c0-2.13-1.17-3.28-3.41-3.28-1.58,0-3.01.59-3.96,1.45l-.55-.79c1.14-1.01,2.82-1.63,4.6-1.63,2.84,0,4.42,1.45,4.42,4.29Zm-1.1,3.89v-2.16h-3.92c-2.38,0-3.21.99-3.21,2.31,0,1.5,1.17,2.42,3.19,2.42s3.28-.92,3.94-2.57Z"/>
        <path class="cls-1" d="m71.7,166.96c0,3.43-2.44,5.83-5.68,5.83-2.07,0-3.81-1.03-4.71-2.79v2.71h-1.06v-16.33h1.1v7.46c.92-1.72,2.64-2.71,4.67-2.71,3.23,0,5.68,2.38,5.68,5.83Zm-1.1,0c0-2.88-2-4.84-4.64-4.84s-4.62,1.96-4.62,4.84,1.98,4.84,4.62,4.84,4.64-1.96,4.64-4.84Z"/>
        <path class="cls-1" d="m83.58,165.42v7.28h-1.06v-2.05c-.73,1.32-2.13,2.13-4.14,2.13-2.57,0-4.14-1.32-4.14-3.28,0-1.74,1.1-3.21,4.29-3.21h3.94v-.92c0-2.13-1.17-3.28-3.41-3.28-1.58,0-3.01.59-3.96,1.45l-.55-.79c1.14-1.01,2.82-1.63,4.6-1.63,2.84,0,4.42,1.45,4.42,4.29Zm-1.1,3.89v-2.16h-3.92c-2.38,0-3.21.99-3.21,2.31,0,1.5,1.17,2.42,3.19,2.42s3.28-.92,3.94-2.57Z"/>
        <path class="cls-1" d="m87.09,166.96c0-3.43,2.44-5.83,5.81-5.83,1.83,0,3.41.7,4.36,2.11l-.81.59c-.84-1.17-2.11-1.72-3.54-1.72-2.71,0-4.69,1.94-4.69,4.84s1.98,4.84,4.69,4.84c1.43,0,2.71-.55,3.54-1.72l.81.59c-.95,1.39-2.53,2.11-4.36,2.11-3.37,0-5.81-2.42-5.81-5.83Z"/>
        <path class="cls-1" d="m100.43,157.54c0-.48.4-.9.9-.9s.9.4.9.88-.4.9-.9.9-.9-.4-.9-.88Zm.35,3.67h1.1v11.49h-1.1v-11.49Z"/>
        <path class="cls-1" d="m105.49,166.96c0-3.41,2.44-5.83,5.74-5.83s5.74,2.42,5.74,5.83-2.44,5.83-5.74,5.83-5.74-2.42-5.74-5.83Zm10.36,0c0-2.88-1.98-4.84-4.62-4.84s-4.62,1.96-4.62,4.84,1.98,4.84,4.62,4.84,4.62-1.96,4.62-4.84Zm-2.82-10.21h1.58l-3.45,2.6h-1.19l3.06-2.6Z"/>
        <path class="cls-1" d="m130.88,165.99v6.71h-1.1v-6.62c0-2.6-1.39-3.96-3.72-3.96-2.71,0-4.36,1.74-4.36,4.47v6.12h-1.1v-11.49h1.06v2.49c.77-1.61,2.38-2.58,4.55-2.58,2.79,0,4.67,1.65,4.67,4.86Z"/>
        <path class="cls-1" d="m151.71,156.38v16.33h-1.08v-2.71c-.9,1.78-2.64,2.79-4.71,2.79-3.23,0-5.68-2.4-5.68-5.83s2.44-5.83,5.68-5.83c2.05,0,3.76,1.01,4.69,2.75v-7.5h1.1Zm-1.1,10.58c0-2.88-1.98-4.84-4.62-4.84s-4.62,1.96-4.62,4.84,1.98,4.84,4.62,4.84,4.62-1.96,4.62-4.84Z"/>
        <path class="cls-1" d="m166.27,167.22h-9.88c.11,2.73,2.11,4.58,4.86,4.58,1.45,0,2.79-.53,3.67-1.61l.64.73c-1.01,1.23-2.6,1.87-4.33,1.87-3.48,0-5.92-2.42-5.92-5.83s2.35-5.83,5.5-5.83,5.48,2.38,5.48,5.79c0,.09-.02.2-.02.31Zm-9.86-.86h8.8c-.15-2.49-1.96-4.27-4.4-4.27s-4.22,1.76-4.4,4.27Z"/>
        <path class="cls-1" d="m185.02,161.22l-5.19,11.49h-1.12l-5.17-11.49h1.17l4.58,10.28,4.62-10.28h1.12Z"/>
        <path class="cls-1" d="m187.28,157.54c0-.48.4-.9.9-.9s.9.4.9.88-.4.9-.9.9-.9-.4-.9-.88Zm.35,3.67h1.1v11.49h-1.1v-11.49Z"/>
        <path class="cls-1" d="m203.8,156.38v16.33h-1.08v-2.71c-.9,1.78-2.64,2.79-4.71,2.79-3.23,0-5.68-2.4-5.68-5.83s2.44-5.83,5.68-5.83c2.05,0,3.76,1.01,4.69,2.75v-7.5h1.1Zm-1.1,10.58c0-2.88-1.98-4.84-4.62-4.84s-4.62,1.96-4.62,4.84,1.98,4.84,4.62,4.84,4.62-1.96,4.62-4.84Z"/>
        <path class="cls-1" d="m218.37,167.22h-9.88c.11,2.73,2.11,4.58,4.86,4.58,1.45,0,2.79-.53,3.67-1.61l.64.73c-1.01,1.23-2.6,1.87-4.33,1.87-3.48,0-5.92-2.42-5.92-5.83s2.35-5.83,5.5-5.83,5.48,2.38,5.48,5.79c0,.09-.02.2-.02.31Zm-9.86-.86h8.8c-.15-2.49-1.96-4.27-4.4-4.27s-4.22,1.76-4.4,4.27Z"/>
        <path class="cls-1" d="m220.76,166.96c0-3.41,2.44-5.83,5.74-5.83s5.74,2.42,5.74,5.83-2.44,5.83-5.74,5.83-5.74-2.42-5.74-5.83Zm10.36,0c0-2.88-1.98-4.84-4.62-4.84s-4.62,1.96-4.62,4.84,1.98,4.84,4.62,4.84,4.62-1.96,4.62-4.84Z"/>
        <path class="cls-1" d="m59.74,183.22l-5.9,13.05c-.92,2.11-2.07,2.79-3.59,2.79-1.03,0-2-.35-2.66-1.03l.55-.84c.59.62,1.28.9,2.13.9,1.06,0,1.83-.48,2.53-2.05l.62-1.39-5.17-11.44h1.17l4.6,10.28,4.6-10.28h1.12Z"/>
        <path class="cls-1" d="m66.18,176.18h1.01l-7.26,20.73h-1.01l7.26-20.73Z"/>
        <path class="cls-1" d="m66.25,188.96c0-3.41,2.44-5.83,5.74-5.83s5.74,2.42,5.74,5.83-2.44,5.83-5.74,5.83-5.74-2.42-5.74-5.83Zm10.36,0c0-2.88-1.98-4.84-4.62-4.84s-4.62,1.96-4.62,4.84,1.98,4.84,4.62,4.84,4.62-1.96,4.62-4.84Z"/>
        <path class="cls-1" d="m88.54,181.54v1.67h3.67v.95h-3.65v10.54h-1.1v-10.54h-2.11v-.95h2.11v-1.76c0-1.91,1.14-3.17,3.19-3.17.84,0,1.72.24,2.27.75l-.44.84c-.46-.42-1.1-.64-1.78-.64-1.43,0-2.16.79-2.16,2.31Z"/>
        <path class="cls-1" d="m93.22,188.96c0-3.41,2.44-5.83,5.74-5.83s5.74,2.42,5.74,5.83-2.44,5.83-5.74,5.83-5.74-2.42-5.74-5.83Zm10.36,0c0-2.88-1.98-4.84-4.62-4.84s-4.62,1.96-4.62,4.84,1.98,4.84,4.62,4.84,4.62-1.96,4.62-4.84Z"/>
        <path class="cls-1" d="m114.04,193.97c-.57.55-1.5.81-2.35.81-2.02,0-3.12-1.19-3.12-3.12v-7.5h-2.11v-.95h2.11v-2.51h1.1v2.51h3.65v.95h-3.65v7.39c0,1.47.73,2.29,2.13,2.29.68,0,1.32-.22,1.78-.64l.46.77Z"/>
        <path class="cls-1" d="m115.64,188.96c0-3.41,2.44-5.83,5.74-5.83s5.74,2.42,5.74,5.83-2.44,5.83-5.74,5.83-5.74-2.42-5.74-5.83Zm10.36,0c0-2.88-1.98-4.84-4.62-4.84s-4.62,1.96-4.62,4.84,1.98,4.84,4.62,4.84,4.62-1.96,4.62-4.84Z"/>
        <path class="cls-1" d="m141.1,183.22v10.25c0,3.85-1.87,5.59-5.57,5.59-2.09,0-4.09-.66-5.26-1.83l.59-.84c1.14,1.06,2.79,1.67,4.64,1.67,3.06,0,4.49-1.41,4.49-4.47v-1.94c-.95,1.67-2.71,2.62-4.77,2.62-3.26,0-5.72-2.31-5.72-5.59s2.46-5.57,5.72-5.57c2.11,0,3.89.97,4.82,2.68v-2.6h1.06Zm-1.08,5.48c0-2.71-1.98-4.58-4.71-4.58s-4.69,1.87-4.69,4.58,1.98,4.6,4.69,4.6,4.71-1.89,4.71-4.6Z"/>
        <path class="cls-1" d="m151.41,183.13v1.08c-.09,0-.18-.02-.26-.02-2.55,0-4.07,1.69-4.07,4.53v5.99h-1.1v-11.49h1.06v2.51c.7-1.67,2.22-2.6,4.38-2.6Z"/>
        <path class="cls-1" d="m162.96,187.42v7.28h-1.06v-2.05c-.73,1.32-2.13,2.13-4.14,2.13-2.57,0-4.14-1.32-4.14-3.28,0-1.74,1.1-3.21,4.29-3.21h3.94v-.92c0-2.13-1.17-3.28-3.41-3.28-1.58,0-3.01.59-3.96,1.45l-.55-.79c1.14-1.01,2.82-1.63,4.6-1.63,2.84,0,4.42,1.45,4.42,4.29Zm-1.1,3.89v-2.16h-3.92c-2.38,0-3.21.99-3.21,2.31,0,1.5,1.17,2.42,3.19,2.42s3.28-.92,3.94-2.57Z"/>
        <path class="cls-1" d="m169.01,181.54v1.67h3.67v.95h-3.65v10.54h-1.1v-10.54h-2.11v-.95h2.11v-1.76c0-1.91,1.14-3.17,3.19-3.17.84,0,1.72.24,2.27.75l-.44.84c-.46-.42-1.1-.64-1.78-.64-1.43,0-2.16.79-2.16,2.31Z"/>
        <path class="cls-1" d="m179.26,178.75h1.58l-3.46,2.6h-1.19l3.06-2.6Zm-2.35,4.47h1.1v11.49h-1.1v-11.49Z"/>
        <path class="cls-1" d="m191.17,187.42v7.28h-1.06v-2.05c-.73,1.32-2.13,2.13-4.14,2.13-2.57,0-4.14-1.32-4.14-3.28,0-1.74,1.1-3.21,4.29-3.21h3.94v-.92c0-2.13-1.17-3.28-3.41-3.28-1.58,0-3.01.59-3.96,1.45l-.55-.79c1.14-1.01,2.82-1.63,4.6-1.63,2.84,0,4.42,1.45,4.42,4.29Zm-1.1,3.89v-2.16h-3.92c-2.38,0-3.21.99-3.21,2.31,0,1.5,1.17,2.42,3.19,2.42s3.28-.92,3.94-2.57Z"/>
        <path class="cls-1" d="m194.22,193.31l.51-.88c.88.75,2.44,1.39,4.14,1.39,2.42,0,3.39-.86,3.39-2.16,0-3.34-7.61-.88-7.61-5.39,0-1.74,1.45-3.15,4.36-3.15,1.45,0,3.04.44,3.94,1.12l-.51.88c-.97-.7-2.22-1.03-3.45-1.03-2.24,0-3.23.92-3.23,2.16,0,3.45,7.61,1.01,7.61,5.39,0,1.87-1.61,3.15-4.53,3.15-1.89,0-3.7-.64-4.6-1.47Z"/>
      </g>
      <g id="icon-extremepro-professional">
        <g id="Group_25572" data-name="Group 25572">
          <g id="Group_25567" data-name="Group 25567">
            <path id="Path_9876" data-name="Path 9876" class="cls-1" d="m106.53,96.7c-.33,0-.65-.07-.94-.22h-.03c-.58-.29-1.01-.83-1.15-1.46l-.77-3.37c-.27-1.16.45-2.31,1.61-2.58,1.16-.27,2.31.45,2.58,1.61l.8,3.38c.27,1.16-.45,2.32-1.6,2.59-.16.04-.33.06-.49.06"/>
            <path id="Path_9877" data-name="Path 9877" class="cls-3" d="m150.45,75.19c-.66,0-1.27-.3-1.68-.81l-13.23-16.59c-.08-.08-.15-.16-.22-.24l-19.05-24.75c-.73-.94-.55-2.29.39-3.02.28-.21.61-.36.95-.42,14.63-2.51,29.63,1.53,41.01,11.06.61.51.89,1.33.72,2.11l-6.79,30.96c-.22.99-1.09,1.69-2.1,1.69m-11.89-20.49c.06.06.11.12.16.19l10.59,13.26,5.53-25.25c-8.18-6.45-18.29-9.97-28.7-9.97-1.38,0-2.78.07-4.19.19l16.6,21.57Z"/>
            <path id="Path_9878" data-name="Path 9878" class="cls-3" d="m145.79,96.68c-1.19,0-2.15-.96-2.15-2.15,0-.16.02-.32.05-.47l4.8-21.32,6.81-31.11c.25-1.16,1.4-1.9,2.56-1.64.34.07.66.23.93.46,11.44,9.64,18.02,23.85,17.98,38.81,0,.66-.02,1.3-.05,2-.03.81-.51,1.53-1.25,1.87l-28.77,13.35c-.28.13-.59.2-.91.2m12.92-50.48l-6.02,27.48-3.84,17.06,23.6-10.95v-.53c.03-12.42-4.92-24.33-13.75-33.06"/>
            <path id="Path_9879" data-name="Path 9879" class="cls-3" d="m137.03,58.39h-53.54c-1.19,0-2.15-.96-2.15-2.15,0-.36.09-.71.26-1.03,7.4-13.69,20.68-23.23,36.03-25.86.79-.13,1.58.18,2.07.81l19.05,24.76c.72.94.54,2.3-.41,3.02-.37.29-.83.44-1.3.44m-49.76-4.3h45.38l-15.58-20.24c-12.24,2.49-22.98,9.78-29.81,20.24"/>
            <path id="Path_9880" data-name="Path 9880" class="cls-3" d="m126.15,129.88c-4.29,0-8.57-.54-12.72-1.61-.77-.2-1.37-.81-1.56-1.59l-7.44-31.62c-.27-1.16.44-2.32,1.6-2.59.48-.11.98-.06,1.43.16l19.62,9.45,28.92,14.16c1.07.52,1.51,1.81.99,2.88-.15.31-.37.57-.65.78-8.72,6.51-19.31,10.01-30.19,9.98m-10.39-5.48c3.41.78,6.89,1.17,10.39,1.17,8.72.02,17.27-2.44,24.65-7.1l-25.59-12.54-15.54-7.49,6.1,25.95Z"/>
            <path id="Path_9881" data-name="Path 9881" class="cls-3" d="m155.05,120.32c-.33,0-.65-.07-.95-.22l-28.9-14.16c-1.07-.52-1.51-1.81-.99-2.88.21-.43.57-.78,1-.99l19.47-9.38c.07-.04.13-.07.2-.11l28.77-13.35c1.08-.5,2.36-.03,2.86,1.05.14.31.21.65.2.99-.57,15.31-8.07,29.52-20.38,38.63-.37.28-.82.43-1.29.42m-23.98-16.3l23.73,11.63c9.68-7.59,15.93-18.75,17.34-30.97l-25.27,11.73s-.1.05-.15.08l-15.65,7.54Z"/>
            <path id="Path_9882" data-name="Path 9882" class="cls-3" d="m81.63,100.59c-.1,0-.19,0-.29-.02-.75-.1-1.39-.59-1.69-1.28-6.12-14.22-5.41-30.45,1.94-44.08.38-.7,1.1-1.13,1.89-1.13h31.76c1.19,0,2.15.96,2.15,2.15,0,.49-.17.96-.47,1.34l-13.31,16.7c-.07.15-.16.3-.27.43l-20.04,25.09c-.41.51-1.03.81-1.68.81m3.16-42.21c-5.59,11.11-6.49,24-2.5,35.78l17.42-21.8c.07-.15.16-.29.26-.42l10.81-13.55h-25.99Z"/>
            <path id="Path_9883" data-name="Path 9883" class="cls-3" d="m113.97,128.33c-.18,0-.36-.02-.54-.07-15.12-3.94-27.58-14.63-33.77-28.97-.32-.73-.2-1.58.29-2.2l20.04-25.09c.74-.93,2.09-1.09,3.02-.35.39.31.66.74.76,1.22l4.07,17.82h0s.7,3.08.7,3.08c.04.09.07.19.09.28l7.44,31.62c.27,1.16-.45,2.32-1.6,2.59-.16.04-.33.06-.49.06m-29.84-29.57c5.33,11.38,15.02,20.13,26.88,24.28l-6.51-27.71c-.04-.1-.07-.21-.1-.31l-.76-3.37-3.15-13.38-16.36,20.49Z"/>
          </g>
        </g>
      </g>
    </g>
  </g>
</svg>