<svg id="prefix__Capa_2" data-name="Capa 2" xmlns="http://www.w3.org/2000/svg" viewBox="0 0 209.61 322.21"><defs><style>.prefix__cls-1{fill:#fc3d3d}</style></defs><g id="prefix__Capa_2-2" data-name="Capa 2"><path class="prefix__cls-1" d="M41.36 322.21h126.89c22.81 0 41.36-18.35 41.36-40.91V40.91C209.61 18.35 191.06 0 168.25 0H41.36C18.55 0 0 18.35 0 40.91v240.38c0 22.56 18.55 40.91 41.36 40.91zM3.51 40.91c0-20.64 16.98-37.44 37.85-37.44h126.89c20.87 0 37.85 16.8 37.85 37.44v240.38c0 20.64-16.98 37.44-37.85 37.44H41.36c-20.87 0-37.85-16.8-37.85-37.44V40.91z"/><path class="prefix__cls-1" d="M46.63 210.51A15.745 15.745 0 0042 221.69c0 4.22 1.64 8.19 4.63 11.16l27.46 27.46.39.27a6.263 6.263 0 00.78.48c.12.07.24.14.37.21.14.07.29.14.44.21l.39.18c.15.06.3.11.45.17.13.05.27.1.4.15.16.05.32.09.48.14.13.04.26.08.39.11.17.04.35.07.53.11.12.02.24.05.37.07.2.03.4.05.6.07.1.01.21.03.31.04.3.02.61.04.92.04.38 0 .75-.02 1.11-.05.12-.01.24-.04.36-.05.24-.03.49-.06.72-.11.14-.03.28-.07.42-.1.21-.05.42-.09.63-.15.15-.04.29-.1.44-.15.19-.06.39-.13.57-.2.15-.06.29-.13.43-.19a8.602 8.602 0 00.95-.48c.17-.09.33-.19.49-.29.14-.09.27-.18.4-.27.16-.11.31-.21.46-.33.13-.1.25-.2.38-.31.14-.12.29-.24.42-.37.12-.11.24-.23.35-.34.13-.13.26-.26.39-.4.11-.12.22-.25.32-.38.12-.14.23-.28.34-.43.1-.13.2-.27.29-.4.1-.15.21-.31.3-.46.09-.14.17-.28.25-.43.09-.16.18-.33.26-.49.07-.15.15-.3.21-.45.08-.17.15-.34.21-.52.06-.16.12-.31.17-.48.06-.18.11-.36.17-.55.05-.16.09-.33.13-.49l.12-.57c.03-.17.06-.33.08-.5 0-.06.01-.13.02-.2l-30.71-30.71.04-.04c-.06-.07-.11-.14-.17-.2-.21-.23-.41-.48-.61-.72-.29-.35-.58-.69-.84-1.05-.19-.25-.36-.51-.53-.76-.25-.37-.5-.75-.73-1.14-.16-.26-.31-.53-.45-.8-.22-.4-.42-.81-.62-1.23-.13-.27-.25-.54-.37-.82-.18-.43-.35-.87-.5-1.31-.1-.27-.19-.54-.28-.82-.15-.47-.27-.95-.38-1.43-.06-.26-.13-.51-.19-.77-.11-.54-.19-1.1-.26-1.65-.03-.2-.07-.4-.09-.6-.08-.77-.12-1.54-.12-2.31 0-.18.02-.36.03-.53.01-.61.04-1.22.1-1.82.03-.34.1-.68.15-1.02.06-.44.12-.88.21-1.31.02-.08.02-.16.04-.25l-9.4 9.4zM105.23 136.91c5.1 0 9.24-4.15 9.24-9.24V80.74l-.12-.15a10.567 10.567 0 00-7.8-3.44c-5.83 0-10.56 4.74-10.56 10.56v39.96c0 5.1 4.15 9.24 9.24 9.24z"/><path class="prefix__cls-1" d="M87.46 273.69c3.02 3.02 6.96 4.69 11.08 4.69 2.1 0 4.18-.42 6.17-1.25 6.03-2.5 9.78-8.11 9.77-14.63v-60.37c0-5.1-4.15-9.25-9.25-9.25-2.87 0-5.52 1.3-7.28 3.58a9.078 9.078 0 00-1.96 5.67v53.93c-.04.14-.1.27-.14.41-.05.16-.11.32-.17.48-.1.28-.22.55-.34.82-.06.14-.12.27-.18.41-.17.35-.35.7-.55 1.03-.02.04-.05.09-.07.13-.22.38-.46.74-.72 1.09-.08.11-.17.21-.25.32-.18.24-.37.48-.56.71-.11.12-.22.24-.32.36-.19.21-.38.41-.58.6-.12.12-.24.23-.36.34-.21.19-.42.37-.64.55l-.36.3c-.26.2-.52.38-.79.57-.09.06-.18.13-.27.19-.37.24-.75.46-1.13.66-.09.05-.18.08-.26.13-.31.15-.62.3-.93.43-.14.06-.29.11-.43.17-.27.1-.54.2-.82.29-.16.05-.32.1-.49.14-.27.08-.55.15-.83.21-.16.04-.33.07-.5.1-.3.06-.61.1-.92.13-.15.02-.29.04-.44.05-.46.04-.92.07-1.39.07-.35 0-.7-.01-1.05-.04l6.97 6.97zM146.66 110.47l-81.93 81.94-.04.04c-.45.45-.88.92-1.28 1.41-.08.1-.15.21-.23.31-.31.39-.61.78-.88 1.19-2.1 3.14-3.22 6.82-3.22 10.67 0 .13.02.25.02.38.01.51.03 1.02.08 1.52.03.26.07.51.11.76.05.38.1.76.18 1.13.06.27.13.54.19.81.09.35.17.69.28 1.03.08.27.18.54.28.81.12.33.24.66.37.98a16.611 16.611 0 00.83 1.73c.13.25.27.49.41.74.19.31.39.62.59.92l.45.66c.24.32.5.63.76.94.15.18.29.36.44.53.04.04.09.08.13.13l98.82-98.82c2.96-2.96 4.59-6.9 4.59-11.08 0-4.19-1.63-8.12-4.59-11.08l-8.99-8.99c.02.11.03.22.04.33.07.44.13.88.18 1.33.02.2.05.39.06.59.05.63.09 1.27.09 1.91 0 .82-.05 1.63-.13 2.43-.03.27-.09.52-.12.79-.08.54-.15 1.07-.26 1.6-.07.31-.16.61-.24.91-.12.47-.23.94-.39 1.4-.1.32-.24.63-.36.94-.16.43-.32.87-.51 1.29-.14.32-.31.62-.47.93-.2.4-.4.81-.62 1.2-.18.31-.38.6-.58.9-.24.37-.47.75-.74 1.1-.22.29-.45.57-.68.85-.28.34-.54.68-.84 1.01-.25.27-.52.53-.79.79-.25.24-.47.5-.73.74l-.29.3z"/><path class="prefix__cls-1" d="M106.09 54.53c-6.19 2.41-10.1 8.59-10.1 15.24v8.55c.08-.09.18-.17.26-.26.18-.19.37-.38.56-.57.15-.14.3-.28.46-.42.2-.17.4-.34.61-.5l.5-.38c.22-.15.44-.3.66-.44.18-.11.35-.22.53-.33.23-.13.47-.25.71-.37.19-.09.37-.19.56-.27.25-.11.51-.21.77-.31.19-.07.38-.15.57-.21.28-.09.56-.16.84-.23.19-.05.37-.1.56-.14.32-.07.64-.11.97-.16.16-.02.32-.06.49-.07.49-.05.99-.08 1.5-.08.44 0 .89.03 1.32.07.12.01.25.03.37.04.35.04.69.1 1.04.17.1.02.19.03.29.05.42.09.84.21 1.26.34.09.03.18.06.27.1.33.11.66.24.98.37.11.05.22.09.33.14h.02c1.18.54 2.22 1.32 3.14 2.23l29.81 29.59c.05-.05.11-.1.16-.15.18-.19.35-.39.52-.59.26-.3.52-.6.76-.91.17-.22.32-.44.48-.67.22-.31.43-.63.63-.95.15-.24.29-.48.42-.72.18-.33.36-.66.52-1a17.593 17.593 0 00.77-1.82c.09-.26.19-.51.27-.77.12-.38.22-.76.31-1.14.06-.25.13-.5.19-.75.09-.43.15-.86.21-1.3.03-.22.07-.43.09-.65.07-.66.11-1.32.11-1.98 0-.47-.02-.93-.05-1.39-.01-.15-.03-.3-.05-.45-.03-.31-.06-.62-.1-.93-.03-.17-.06-.34-.09-.52-.05-.28-.09-.56-.15-.84-.04-.18-.09-.36-.14-.54-.07-.26-.13-.53-.2-.79-.05-.18-.12-.36-.18-.54-.08-.26-.16-.51-.26-.77-.07-.18-.15-.35-.22-.53-.1-.25-.2-.5-.31-.75-.08-.17-.17-.34-.25-.51-.12-.24-.24-.49-.37-.73-.15-.27-.33-.53-.46-.8-.07-.11-.14-.22-.22-.33l-24.78-24.78c-4.53-4.53-10.97-5.88-16.9-3.57z"/></g></svg>