<?xml version="1.0" encoding="UTF-8"?>
<svg id="Capa_2" data-name="Capa 2" xmlns="http://www.w3.org/2000/svg" viewBox="0 0 320.37 140.31">
  <defs>
    <style>
      .cls-1 {
        fill: #fff;
      }
    </style>
  </defs>
  <g id="Capa_2-2" data-name="Capa 2">
    <g>
      <g>
        <path class="cls-1" d="m60.51,24.47v89.06h-6.49V30.32h-21.76v-5.85h28.24Z"/>
        <path class="cls-1" d="m145.89,87.32c0,16.29-12.6,26.84-29.64,26.84-23.41,0-35.75-16.79-35.75-44.66,0-30.15,16.03-45.67,39.57-45.67,7.63,0,14.76,1.27,20.23,4.58l-2.67,5.22c-4.58-2.93-10.81-4.07-17.56-4.07-19.97,0-33.08,13.1-33.08,38.93,0,2.67.13,6.62.76,10.69,3.69-11.71,14.89-18.32,28.37-18.32,17.81,0,29.77,10.43,29.77,26.46Zm-6.49.13c0-12.72-9.16-20.99-24.17-20.99s-24.68,9.29-24.68,21.25c0,10.43,8.78,20.87,25.45,20.87,13.87,0,23.41-8.27,23.41-21.12Z"/>
        <path class="cls-1" d="m206.9,80.42h4.68v25c-6.01,5.73-14.7,8.59-23.86,8.59-20.14,0-34.93-14.41-34.93-33.88s14.79-33.88,35.02-33.88c9.64,0,18.13,3.05,24.05,9.16l-3.05,3.25c-5.82-5.73-12.79-7.92-20.9-7.92-17.37,0-30.25,12.6-30.25,29.39s12.88,29.39,30.25,29.39c7.06,0,13.55-1.72,18.99-6.11v-23Z"/>
        <path class="cls-1" d="m285.43,95.87c0,11.26-8.21,17.65-24.62,17.65h-29.77V46.73h27.87c14.31,0,23,6.01,23,17.08,0,7.92-4.49,13.07-11.17,15.27,9.45,1.81,14.7,7.54,14.7,16.79Zm-49.53-44.95v26.62h22.81c11.55,0,18.23-4.49,18.23-13.36s-6.68-13.26-18.23-13.26h-22.81Zm44.66,44.57c0-9.54-6.97-13.74-19.75-13.74h-24.91v27.58h24.91c12.79,0,19.75-4.2,19.75-13.84Z"/>
      </g>
      <path class="cls-1" d="m304.76,140.31H15.62c-8.61,0-15.62-7.01-15.62-15.62V15.62C0,7.01,7.01,0,15.62,0h289.14c8.61,0,15.62,7.01,15.62,15.62v109.08c0,8.61-7.01,15.62-15.62,15.62ZM15.62,3.55c-6.65,0-12.07,5.41-12.07,12.07v109.08c0,6.65,5.41,12.07,12.07,12.07h289.14c6.65,0,12.07-5.41,12.07-12.07V15.62c0-6.65-5.41-12.07-12.07-12.07H15.62Z"/>
    </g>
  </g>
</svg>