<?xml version="1.0" encoding="utf-8"?>
<!-- Generator: Adobe Illustrator 27.1.0, SVG Export Plug-In . SVG Version: 6.00 Build 0)  -->
<svg version="1.1" id="Capa_2_00000067235587041801463030000007952932291126809758_"
	 xmlns="http://www.w3.org/2000/svg" xmlns:xlink="http://www.w3.org/1999/xlink" x="0px" y="0px" viewBox="0 0 406.9 140.4"
	 style="enable-background:new 0 0 406.9 140.4;" xml:space="preserve">
<style type="text/css">
	.st0{fill:#FFFFFF;}
</style>
<g>
	<g>
		<g>
			<path class="st0" d="M391.3,140.4H15.6c-8.6,0-15.6-7-15.6-15.6V15.8C0,7.1,7,0.1,15.6,0.1h375.7c8.6,0,15.6,7,15.6,15.6v109.1
				C406.9,133.4,399.9,140.4,391.3,140.4z M15.6,3.7C9,3.7,3.6,9.1,3.6,15.8v109.1c0,6.7,5.4,12.1,12.1,12.1h375.7
				c6.7,0,12.1-5.4,12.1-12.1V15.8c0-6.7-5.4-12.1-12.1-12.1H15.6z"/>
		</g>
	</g>
	<g>
		<g>
			<path class="st0" d="M97.6,107.7v5.9H36.4V109L74,71.6C84.6,61,86.6,54.8,86.6,48c0-11.2-7.8-18.2-22.5-18.2
				c-11.2,0-19.5,3.3-25.6,10.3l-4.6-4.1c6.7-7.8,17.3-12.2,30.7-12.2c17.4,0,28.6,9,28.6,23.5c0,8.5-2.8,16-14.5,27.6l-32.8,32.7
				H97.6z"/>
			<path class="st0" d="M166,87.8c0,14.9-10.3,26.3-31.2,26.3c-13,0-25.1-4.8-31.3-12l3.3-5c5.3,6.2,15.9,10.9,27.9,10.9
				c16.4,0,24.8-8.3,24.8-20.1c0-12.7-7.8-20.5-31.9-20.5h-18.1l4.7-43.1h47.2v5.9h-41.7l-3.4,31.4H129
				C156.1,61.8,166,72.1,166,87.8z"/>
			<path class="st0" d="M241,87.3c0,16.3-12.6,26.8-29.6,26.8c-23.4,0-35.7-16.8-35.7-44.7c0-30.1,16-45.7,39.6-45.7
				c7.6,0,14.8,1.3,20.2,4.6l-2.7,5.2c-4.6-2.9-10.8-4.1-17.6-4.1c-20,0-33.1,13.1-33.1,38.9c0,2.7,0.1,6.6,0.8,10.7
				c3.7-11.7,14.9-18.3,28.4-18.3C229.1,60.9,241,71.3,241,87.3z M234.6,87.5c0-12.7-9.2-21-24.2-21c-14.6,0-24.7,9.3-24.7,21.2
				c0,10.4,8.8,20.9,25.4,20.9C225,108.6,234.6,100.3,234.6,87.5z"/>
			<path class="st0" d="M302,80.4h4.7v25c-6,5.7-14.7,8.6-23.9,8.6c-20.1,0-34.9-14.4-34.9-33.9c0-19.5,14.8-33.9,35-33.9
				c9.6,0,18.1,3.1,24,9.2l-3.1,3.2c-5.8-5.7-12.8-7.9-20.9-7.9c-17.4,0-30.2,12.6-30.2,29.4c0,16.7,12.9,29.4,30.2,29.4
				c7.1,0,13.5-1.7,19-6.1V80.4z"/>
			<path class="st0" d="M380.6,95.9c0,11.3-8.2,17.7-24.6,17.7h-29.8V46.7H354c14.3,0,23,6,23,17.1c0,7.9-4.5,13.1-11.2,15.3
				C375.3,80.9,380.6,86.6,380.6,95.9z M331,50.9v26.6h22.8c11.5,0,18.2-4.5,18.2-13.4c0-8.8-6.7-13.3-18.2-13.3H331z M375.7,95.5
				c0-9.5-7-13.7-19.8-13.7H331v27.6H356C368.7,109.3,375.7,105.1,375.7,95.5z"/>
		</g>
	</g>
</g>
</svg>
