<?xml version="1.0" encoding="UTF-8"?>
<svg id="Capa_2" data-name="Capa 2" xmlns="http://www.w3.org/2000/svg" viewBox="0 0 260.19 139.96">
  <defs>
    <style>
      .cls-1 {
        fill: #fff;
      }
    </style>
  </defs>
  <g id="Capa_2-2" data-name="Capa 2">
    <g>
      <g>
        <path class="cls-1" d="m94.23,88.92c0,15.52-12.85,25.06-33.84,25.06s-33.59-9.54-33.59-25.06c0-11.2,6.87-18.96,18.96-22.14-10.18-3.31-15.78-10.31-15.78-20.1,0-14.25,11.96-23.03,30.41-23.03s30.66,8.78,30.66,23.03c0,9.8-5.73,16.79-16.03,20.1,12.21,3.18,19.21,11.07,19.21,22.14Zm-6.49,0c0-11.83-10.18-19.34-27.35-19.34s-27.1,7.51-27.1,19.34,9.92,19.47,27.1,19.47,27.35-7.51,27.35-19.47Zm-27.35-24.68c15.14,0,24.17-6.74,24.17-17.3s-9.42-17.68-24.17-17.68-23.92,6.74-23.92,17.56,8.78,17.43,23.92,17.43Z"/>
        <path class="cls-1" d="m157.53,80.24h4.68v25c-6.01,5.73-14.7,8.59-23.86,8.59-20.14,0-34.93-14.41-34.93-33.88s14.79-33.88,35.02-33.88c9.64,0,18.13,3.05,24.05,9.16l-3.05,3.25c-5.82-5.73-12.79-7.92-20.9-7.92-17.37,0-30.25,12.6-30.25,29.39s12.88,29.39,30.25,29.39c7.06,0,13.55-1.72,18.99-6.11v-23Z"/>
        <path class="cls-1" d="m236.07,95.7c0,11.26-8.21,17.65-24.62,17.65h-29.77V46.55h27.87c14.31,0,23,6.01,23,17.08,0,7.92-4.49,13.07-11.17,15.27,9.45,1.81,14.7,7.54,14.7,16.79Zm-49.53-44.95v26.62h22.81c11.55,0,18.23-4.49,18.23-13.36s-6.68-13.26-18.23-13.26h-22.81Zm44.66,44.57c0-9.54-6.97-13.74-19.75-13.74h-24.91v27.58h24.91c12.79,0,19.75-4.2,19.75-13.84Z"/>
      </g>
      <path class="cls-1" d="m246.13,139.96H14.07c-7.76,0-14.07-6.31-14.07-14.07V14.07C0,6.31,6.31,0,14.07,0h232.06c7.76,0,14.07,6.31,14.07,14.07v111.83c0,7.76-6.31,14.07-14.07,14.07ZM14.07,3.2c-5.99,0-10.87,4.88-10.87,10.87v111.83c0,5.99,4.88,10.87,10.87,10.87h232.06c5.99,0,10.87-4.88,10.87-10.87V14.07c0-5.99-4.88-10.87-10.87-10.87H14.07Z"/>
    </g>
  </g>
</svg>