<?xml version="1.0" encoding="UTF-8"?>
<svg id="Capa_2" data-name="Capa 2" xmlns="http://www.w3.org/2000/svg" viewBox="0 0 191.13 179.95">
  <defs>
    <style>
      .cls-1 {
        fill: #fff;
      }

      .cls-2 {
        fill: #6a49c4;
      }
    </style>
  </defs>
  <g id="Capa_2-2" data-name="Capa 2">
    <g>
      <path class="cls-2" d="m165.72,77.49c.09-15.31.06-30.87.04-45.93v-6.44c-.02-3.33-.98-6.28-2.87-8.76-2.98-3.91-6.98-5.81-12.22-5.81-10.73,0-21.45,0-32.18,0h-9.65c-1.04,0-2.08,0-3.12-.02-2.31-.02-4.69-.04-7.02.04-6.07.22-10.44,3.09-12.99,8.5-.84,1.78-2.16,2.03-3.35,2.03h-.02c-6.5-.02-13.01-.02-19.51-.02h-10.02c-.38,0-.76-.03-1.16-.07l-.51-.04c-.79-.05-1.4-.71-1.4-1.5v-1.63c.01-1.11.02-2.17,0-3.22-.12-5.25-2.11-9.19-5.9-11.71-1.37-.91-3.02-1.49-4.76-2.11-.74-.26-1.47-.52-2.19-.8h-2.89c-.18.08-.42.18-.71.23-6.6,1.14-11.19,5.91-11.96,12.44-.17,1.45-.13,2.96-.08,4.56.02.78.05,1.56.05,2.36s-.67,1.5-1.5,1.5h-1.69c-1.09,0-2.07,0-3.04,0C6.22,21.16.04,27.32.03,36.07,0,62.59-.03,90.85.08,119.21c0,2.3.53,4.73,1.43,6.65,2.56,5.46,7.14,8.23,13.62,8.24,10.59.02,21.17.01,31.76.01h12.71s2.1,0,2.1,0c.83,0,1.5.67,1.5,1.5v11.76c0,.67-.45,1.26-1.09,1.44l-1.91.53c-10.24,2.88-17.8,12.66-17.98,23.25-.02,1.41.35,2.55,1.08,3.3.7.71,1.77,1.09,3.08,1.09,20.8.02,41.6.02,62.4,0,1.35,0,2.45-.38,3.16-1.11.72-.73,1.09-1.84,1.07-3.22-.13-9.96-6.79-19.3-16.2-22.71-.83-.3-1.68-.56-2.52-.82-.41-.13-.81-.25-1.21-.38-.62-.2-1.04-.78-1.04-1.43v-11.71c0-.83.67-1.5,1.5-1.5h2.01c3.74,0,7.48,0,11.22,0,10.84.01,22.04.03,33.06-.08,2.64-.03,5.19-.55,7.18-1.47,5.39-2.49,8.15-7.02,8.19-13.47.05-8.07.02-16.27,0-24.2v-.92c0-1.19.23-2.53,2.02-3.37,5.6-2.63,8.46-7.05,8.5-13.11ZM28.73,13.6c.29-3.4,3.22-6.04,6.69-6.04h.07c3.47.03,6.39,2.73,6.65,6.15.1,1.34.08,2.63.05,4.01-.01.59-.02,1.19-.02,1.8,0,.83-.67,1.5-1.5,1.5h-10.47c-.83,0-1.5-.67-1.5-1.5,0-.61-.01-1.21-.02-1.8-.03-1.34-.06-2.74.06-4.12Zm75.27,152.79c.14.3.21.59.26.82l.03.1c.13.54-.06.95-.12,1.09-.21.6-.78.99-1.41.99h-50.54c-.5,0-.96-.24-1.24-.65-.28-.41-.34-.93-.16-1.39,2.11-5.44,5.91-9.03,11.32-10.66,1.57-.47,3.32-.73,5.08-.75,7.02-.07,13.89-.13,20.76,0,7.47.14,12.86,3.65,16.01,10.45Zm-33.07-19.64v-11.05c0-.83.67-1.5,1.5-1.5h10.38c.83,0,1.5.67,1.5,1.5v11.05c0,.83-.67,1.5-1.5,1.5h-10.38c-.83,0-1.5-.67-1.5-1.5Zm76.68-26.72c-.03,3.56-2.77,6.3-6.52,6.52-.32.02-.63.02-.95.02-.15,0-.3,0-.45,0h-.44s-123.37,0-123.37,0c-5.92,0-8.33-2.43-8.33-8.38V36.82c0-5.66,2.52-8.18,8.18-8.18h67.15c.83,0,1.5.67,1.5,1.5v15.66c0,10.32,0,20.64,0,30.96,0,6.53,2.77,11.11,8.2,13.63,1.98.92,4.53,1.44,7.18,1.46,10.95.11,22.08.09,32.85.08,3.75,0,7.5,0,11.24,0h2.27c.83,0,1.5.67,1.5,1.5,0,2.54,0,5.05,0,7.56,0,6.55.02,12.73-.04,19.05Zm10.59-43.37c0,5.04-2.69,7.71-7.77,7.71-8.47,0-16.93,0-25.4,0s-16.93,0-25.4,0c-5.04,0-7.71-2.69-7.71-7.77,0-16.93,0-33.86,0-50.8,0-5.04,2.69-7.71,7.77-7.71,6,0,12,0,17.99,0h7.5s7.59,0,7.59,0c5.91,0,11.81,0,17.72,0,5.04,0,7.71,2.69,7.71,7.77,0,16.93,0,33.87,0,50.8Z"/>
      <path class="cls-2" d="m21.11,46.84c0,9.96,0,19.92,0,29.88,0,3.3,1.35,4.65,4.65,4.65,4.67,0,9.33,0,13.99,0h6.22s6.22,0,6.22,0c4.66,0,9.33,0,13.99,0,3.3,0,4.65-1.35,4.65-4.65,0-9.96,0-19.92,0-29.88,0-3.3-1.35-4.65-4.65-4.65-13.47,0-26.95,0-40.42,0-3.3,0-4.65,1.35-4.65,4.65Zm7.68,4.51c0-.83.67-1.5,1.5-1.5h31.42c.83,0,1.5.67,1.5,1.5v20.88c0,.83-.67,1.5-1.5,1.5h-31.42c-.83,0-1.5-.67-1.5-1.5v-20.88Z"/>
      <path class="cls-2" d="m30.14,98.61c.04,2.86-2.31,5.29-5.18,5.34-2.86.04-5.29-2.31-5.34-5.18-.04-2.86,2.31-5.29,5.18-5.34,2.86-.04,5.29,2.31,5.34,5.18Z"/>
      <path class="cls-2" d="m45.72,103.95c-2.87-.14-5.14-2.65-5-5.51.14-2.87,2.65-5.14,5.51-5,2.87.14,5.14,2.65,5,5.51-.14,2.87-2.65,5.14-5.51,5Z"/>
      <path class="cls-2" d="m72.33,98.65c.02,2.87-2.35,5.28-5.22,5.3-2.87.02-5.28-2.35-5.3-5.22-.02-2.87,2.35-5.28,5.22-5.3,2.87-.02,5.28,2.35,5.3,5.22Z"/>
      <path class="cls-2" d="m125.12,31.65h-.05c-5.2,0-10.1,2.04-13.81,5.73-3.72,3.71-5.77,8.63-5.77,13.84,0,5.21,2.04,10.13,5.76,13.85,3.71,3.71,8.62,5.75,13.83,5.75h.03c10.74-.02,19.51-8.76,19.56-19.49.02-5.22-2-10.15-5.71-13.88-3.7-3.73-8.61-5.79-13.83-5.8Zm-.05,31.62h-.01c-6.6,0-11.99-5.39-12.02-11.99-.01-3.21,1.26-6.25,3.59-8.56,2.32-2.3,5.37-3.53,8.56-3.52,6.62.08,11.96,5.5,11.92,12.1-.04,6.6-5.44,11.97-12.03,11.97Z"/>
    </g>
    <!-- <path class="cls-1" d="m125.12,336.04h-.05c-5.2,0-10.1,2.04-13.81,5.73-3.72,3.71-5.77,8.63-5.77,13.84,0,5.21,2.04,10.13,5.76,13.85,3.71,3.71,8.62,5.75,13.83,5.75h.03c10.74-.02,19.51-8.76,19.56-19.49.02-5.22-2-10.15-5.71-13.88-3.7-3.73-8.61-5.79-13.83-5.8Zm-.05,31.62h-.01c-6.6,0-11.99-5.39-12.02-11.99-.01-3.21,1.26-6.25,3.59-8.56,2.32-2.3,5.37-3.53,8.56-3.52,6.62.08,11.96,5.5,11.92,12.1-.04,6.6-5.44,11.97-12.03,11.97Z"/> -->
  </g>
</svg>