<?xml version="1.0" encoding="utf-8"?>
<!-- Generator: Adobe Illustrator 27.1.0, SVG Export Plug-In . SVG Version: 6.00 Build 0)  -->
<svg version="1.1" id="Capa_2_00000160897696942887474960000000397689375678537655_"
	 xmlns="http://www.w3.org/2000/svg" xmlns:xlink="http://www.w3.org/1999/xlink" x="0px" y="0px" viewBox="0 0 543.5 166"
	 style="enable-background:new 0 0 543.5 166;" xml:space="preserve">
<style type="text/css">
	.st0{fill:#FFFFFF;}
</style>
<g>
	<g>
		<g>
			<path class="st0" d="M139.5,99l5.9-11.8c2.1-4.2,1.3-6.4-2-6.4c-7.7,0-18.1,9.8-24,21.5l-4.1,7.7c-1.4,2.6-2.2,3-4.2,3l-10.9,0
				c-1.4,0-2.2-0.5-2.2-1.5c0-0.6,0.2-1.2,0.6-2l26.7-52.2c1.4-2.6,2.2-3,4.2-3l10.8,0c2.1,0,2.8,1.1,1.5,3.6l-8.2,16.2h0.2
				c4.3-2.7,11.2-6.5,19.7-6.5c7.2,0,11.9,3.5,11.9,9.6c0,2.2-0.6,4.9-2.3,8.2l-6.8,13.5c-1.4,2.7-0.5,4.2,1.6,4.2
				c1.9,0,2.6,0.9,1.8,2.6l-1.8,3.8c-1,2.1-2,2.6-4.2,3c-1.8,0.3-5.1,0.5-7,0.5C139.7,113,134.9,108.3,139.5,99z"/>
			<path class="st0" d="M167.6,98.4c0-14.9,16.4-31.2,39.7-31.2c10.9,0,20.8,4.5,20.8,15.1c0,14.9-16.4,31.2-39.7,31.2
				C177.4,113.5,167.6,109,167.6,98.4z M210.5,84.8c0-4.6-2.8-6.7-7.7-6.7c-9.3,0-17.5,10.7-17.5,17.9c0,4.6,2.8,6.7,7.7,6.7
				C202.1,102.7,210.5,91.8,210.5,84.8z"/>
			<path class="st0" d="M226.7,113c-2.1,0-2.7-1.1-1.5-3.5l13-25.6c1.8-3.6,4.5-9.8,5.5-12.2c1-2.5,2.1-3,4.2-3l9.1,0
				c2.1,0,2.8,1.1,1.6,3.6l-1.8,3.5h0.2c5.1-4.3,11.9-8.1,18.4-8.1c4.1,0,5,1.1,4.3,4.3l-1.4,6.8c-0.4,2.2-1.3,3-3.2,2.9
				c-1.4-0.1-3.1-0.2-4.2-0.2c-12.3,0-19.7,10.1-25.1,20.9l-3.9,7.7c-1.4,2.6-2.2,3-4.2,3L226.7,113z"/>
			<path class="st0" d="M275.5,99l13.8-27.4c1.3-2.5,2.2-3,4.2-3l10.9,0c2.1,0,2.8,1.1,1.5,3.6l-13.5,26.7c-1.4,2.7-0.5,4.2,1.6,4.2
				c1.9,0,2.6,0.9,1.8,2.6l-1.8,3.8c-1,2.1-2,2.6-4.2,3c-1.8,0.3-5.1,0.5-7,0.5C275.7,113,270.8,108.3,275.5,99z M294.7,61.5
				c0-4.2,4.3-8.4,10.5-8.4c4.5,0,6.8,2.2,6.8,5.1c0,4.2-4.3,8.4-10.5,8.4C297,66.6,294.7,64.4,294.7,61.5z"/>
			<path class="st0" d="M299.2,113c-1.2,0-2-0.8-2-2c0-5.2,17.1-19.1,32.6-32.2v-0.2l-15.6,0c-1.8,0-2.6-1.5-1.5-3.7l1.6-3.2
				c1.1-2.2,2.2-3.1,4.2-3.1l37.3,0c1.2,0,2,0.8,2,2c0,6.5-16.5,16-33.2,32.1v0.3l18.8,0c1.8,0,2.6,1.5,1.5,3.7l-1.6,3.2
				c-1.1,2.2-2.2,3.1-4.2,3.1L299.2,113z"/>
			<path class="st0" d="M355.3,98.4c0-14.9,16.4-31.2,39.7-31.2c10.9,0,20.8,4.5,20.8,15.1c0,14.9-16.4,31.2-39.7,31.2
				C365.1,113.5,355.3,109,355.3,98.4z M398.2,84.7c0-4.6-2.8-6.7-7.7-6.7c-9.3,0-17.5,10.7-17.5,17.9c0,4.6,2.8,6.7,7.7,6.7
				C389.8,102.6,398.2,91.7,398.2,84.7z"/>
			<path class="st0" d="M453.8,99l5.9-11.8c2.1-4.2,1.3-6.4-2-6.4c-7.7,0-18.1,9.8-24,21.5l-4,7.7c-1.4,2.6-2.2,3-4.2,3l-10.9,0
				c-2.6,0-2.6-1.5-1.5-3.5l19.2-37.8c1.2-2.4,2.2-3,4.2-3l10,0c2.1,0,2.8,1.2,1.5,3.6l-1.7,3.1h0.2c5.8-4,12.7-7.7,21.2-7.7
				c7.2,0,11.9,3.5,11.9,9.6c0,2.2-0.6,4.9-2.3,8.2l-7.2,14.3c-1.4,2.7-0.5,4.2,1.6,4.2c1.9,0,2.6,0.9,1.8,2.6l-1.4,3
				c-1,2.1-2,2.6-4.2,3c-1.8,0.3-5.1,0.5-7,0.5C454,113,449.2,108.3,453.8,99z"/>
			<path class="st0" d="M481.4,99.1c0-13.3,16.2-31.8,36.6-31.8c9.4,0,17,5,17,13.6c0,6.5-3,9.2-9.2,10.9
				c-6.3,1.8-17.5,3.6-27.5,4.4c-0.1,0.5-0.1,0.9-0.1,1.3c0,2.5,2.9,4.2,8.8,4.2c5.5,0,10.9-0.9,14.8-2c1.7-0.5,2.6-0.1,2.9,1.7
				l0.7,5.6c0.2,2-0.6,2.7-2.7,3.4c-4.2,1.4-12,2.8-21.5,2.8C489.3,113.1,481.4,108.9,481.4,99.1z M515.2,84.4
				c3.3-0.8,5.5-1.8,5.5-4.2c0-1.9-1.8-3.4-4.6-3.4c-5.6,0-11.7,4.7-14.4,9.6C506.3,86.1,510.7,85.5,515.2,84.4z"/>
		</g>
		<g>
			<path class="st0" d="M11.8,114.9c-2.1,2.1-3.3,5-3.3,8c0,3,1.2,5.9,3.3,8l19.6,19.6c0.1,0.1,0.2,0.1,0.3,0.2
				c0.1,0.1,0.2,0.1,0.2,0.2c0.1,0.1,0.2,0.1,0.3,0.2c0.1,0,0.2,0.1,0.3,0.1c0.1,0.1,0.2,0.1,0.3,0.1c0.1,0,0.2,0.1,0.3,0.1
				c0.1,0,0.2,0.1,0.3,0.1c0.1,0,0.2,0.1,0.3,0.1c0.1,0,0.2,0.1,0.3,0.1c0.1,0,0.2,0.1,0.3,0.1c0.1,0,0.3,0.1,0.4,0.1
				c0.1,0,0.2,0,0.3,0.1c0.1,0,0.3,0,0.4,0.1c0.1,0,0.1,0,0.2,0c0.2,0,0.4,0,0.7,0c0.3,0,0.5,0,0.8,0c0.1,0,0.2,0,0.3,0
				c0.2,0,0.3,0,0.5-0.1c0.1,0,0.2,0,0.3-0.1c0.1,0,0.3-0.1,0.4-0.1c0.1,0,0.2-0.1,0.3-0.1c0.1,0,0.3-0.1,0.4-0.1
				c0.1,0,0.2-0.1,0.3-0.1c0.1-0.1,0.3-0.1,0.4-0.2c0.1-0.1,0.2-0.1,0.3-0.2c0.1-0.1,0.2-0.1,0.4-0.2c0.1-0.1,0.2-0.1,0.3-0.2
				c0.1-0.1,0.2-0.2,0.3-0.2c0.1-0.1,0.2-0.1,0.3-0.2c0.1-0.1,0.2-0.2,0.3-0.3c0.1-0.1,0.2-0.2,0.3-0.2c0.1-0.1,0.2-0.2,0.3-0.3
				c0.1-0.1,0.2-0.2,0.2-0.3c0.1-0.1,0.2-0.2,0.2-0.3c0.1-0.1,0.1-0.2,0.2-0.3c0.1-0.1,0.1-0.2,0.2-0.3c0.1-0.1,0.1-0.2,0.2-0.3
				c0.1-0.1,0.1-0.2,0.2-0.4c0.1-0.1,0.1-0.2,0.2-0.3c0.1-0.1,0.1-0.2,0.2-0.4c0-0.1,0.1-0.2,0.1-0.3c0-0.1,0.1-0.3,0.1-0.4
				c0-0.1,0.1-0.2,0.1-0.4c0-0.1,0.1-0.3,0.1-0.4c0-0.1,0-0.2,0.1-0.4c0,0,0-0.1,0-0.1l-22-22l0,0c0,0-0.1-0.1-0.1-0.1
				c-0.2-0.2-0.3-0.3-0.4-0.5c-0.2-0.2-0.4-0.5-0.6-0.8c-0.1-0.2-0.3-0.4-0.4-0.5c-0.2-0.3-0.4-0.5-0.5-0.8
				c-0.1-0.2-0.2-0.4-0.3-0.6c-0.2-0.3-0.3-0.6-0.4-0.9c-0.1-0.2-0.2-0.4-0.3-0.6c-0.1-0.3-0.2-0.6-0.4-0.9
				c-0.1-0.2-0.1-0.4-0.2-0.6c-0.1-0.3-0.2-0.7-0.3-1c0-0.2-0.1-0.4-0.1-0.6c-0.1-0.4-0.1-0.8-0.2-1.2c0-0.1,0-0.3-0.1-0.4
				c-0.1-0.5-0.1-1.1-0.1-1.7c0-0.1,0-0.3,0-0.4c0-0.4,0-0.9,0.1-1.3c0-0.2,0.1-0.5,0.1-0.7c0-0.3,0.1-0.6,0.2-0.9
				c0-0.1,0-0.1,0-0.2L11.8,114.9z"/>
			<path class="st0" d="M53.7,62.3c3.6,0,6.6-3,6.6-6.6l0-33.6c0,0-0.1-0.1-0.1-0.1c-1.4-1.6-3.5-2.5-5.6-2.5
				c-4.2,0-7.6,3.4-7.6,7.6l0,28.6C47.1,59.3,50.1,62.3,53.7,62.3z"/>
			<path class="st0" d="M41,160.1c2.2,2.2,5,3.4,7.9,3.4c1.5,0,3-0.3,4.4-0.9c4.3-1.8,7-5.8,7-10.5l0-43.2c0-3.6-3-6.6-6.6-6.6
				c-2.1,0-3.9,0.9-5.2,2.6c-0.9,1.2-1.4,2.6-1.4,4.1l0,38.6l0,0c0,0.1-0.1,0.2-0.1,0.3c0,0.1-0.1,0.2-0.1,0.3
				c-0.1,0.2-0.2,0.4-0.2,0.6c0,0.1-0.1,0.2-0.1,0.3c-0.1,0.3-0.3,0.5-0.4,0.7c0,0,0,0.1-0.1,0.1c-0.2,0.3-0.3,0.5-0.5,0.8
				c-0.1,0.1-0.1,0.2-0.2,0.2c-0.1,0.2-0.3,0.3-0.4,0.5c-0.1,0.1-0.2,0.2-0.2,0.3c-0.1,0.1-0.3,0.3-0.4,0.4
				c-0.1,0.1-0.2,0.2-0.3,0.2c-0.1,0.1-0.3,0.3-0.5,0.4c-0.1,0.1-0.2,0.1-0.3,0.2c-0.2,0.1-0.4,0.3-0.6,0.4c-0.1,0-0.1,0.1-0.2,0.1
				c-0.3,0.2-0.5,0.3-0.8,0.5c-0.1,0-0.1,0.1-0.2,0.1c-0.2,0.1-0.4,0.2-0.7,0.3c-0.1,0-0.2,0.1-0.3,0.1c-0.2,0.1-0.4,0.1-0.6,0.2
				c-0.1,0-0.2,0.1-0.3,0.1c-0.2,0.1-0.4,0.1-0.6,0.1c-0.1,0-0.2,0.1-0.4,0.1c-0.2,0-0.4,0.1-0.7,0.1c-0.1,0-0.2,0-0.3,0
				c-0.3,0-0.7,0-1,0c-0.3,0-0.5,0-0.7,0L41,160.1z"/>
			<path class="st0" d="M83.4,43.4L24.8,102l0,0l0,0c-0.3,0.3-0.6,0.7-0.9,1c-0.1,0.1-0.1,0.2-0.2,0.2c-0.2,0.3-0.4,0.6-0.6,0.9
				c-1.5,2.2-2.3,4.9-2.3,7.6c0,0.1,0,0.2,0,0.3c0,0.4,0,0.7,0.1,1.1c0,0.2,0.1,0.4,0.1,0.5c0,0.3,0.1,0.5,0.1,0.8
				c0,0.2,0.1,0.4,0.1,0.6c0.1,0.2,0.1,0.5,0.2,0.7c0.1,0.2,0.1,0.4,0.2,0.6c0.1,0.2,0.2,0.5,0.3,0.7c0.1,0.2,0.2,0.4,0.3,0.6
				c0.1,0.2,0.2,0.5,0.3,0.7c0.1,0.2,0.2,0.4,0.3,0.5c0.1,0.2,0.3,0.4,0.4,0.7c0.1,0.2,0.2,0.3,0.3,0.5c0.2,0.2,0.4,0.5,0.5,0.7
				c0.1,0.1,0.2,0.3,0.3,0.4c0,0,0.1,0.1,0.1,0.1L95,50.4c2.1-2.1,3.3-4.9,3.3-7.9c0-3-1.2-5.8-3.3-7.9l-6.4-6.4c0,0.1,0,0.2,0,0.2
				c0.1,0.3,0.1,0.6,0.1,0.9c0,0.1,0,0.3,0,0.4c0,0.5,0.1,0.9,0.1,1.4c0,0.6,0,1.2-0.1,1.7c0,0.2-0.1,0.4-0.1,0.6
				c-0.1,0.4-0.1,0.8-0.2,1.1c0,0.2-0.1,0.4-0.2,0.7c-0.1,0.3-0.2,0.7-0.3,1c-0.1,0.2-0.2,0.4-0.3,0.7c-0.1,0.3-0.2,0.6-0.4,0.9
				c-0.1,0.2-0.2,0.4-0.3,0.7c-0.1,0.3-0.3,0.6-0.4,0.9c-0.1,0.2-0.3,0.4-0.4,0.6c-0.2,0.3-0.3,0.5-0.5,0.8
				c-0.2,0.2-0.3,0.4-0.5,0.6c-0.2,0.2-0.4,0.5-0.6,0.7c-0.2,0.2-0.4,0.4-0.6,0.6c-0.2,0.2-0.3,0.4-0.5,0.5L83.4,43.4z"/>
			<path class="st0" d="M54.4,3.4c-4.4,1.7-7.2,6.1-7.2,10.9l0,6.1c0.1-0.1,0.1-0.1,0.2-0.2c0.1-0.1,0.3-0.3,0.4-0.4
				c0.1-0.1,0.2-0.2,0.3-0.3c0.1-0.1,0.3-0.2,0.4-0.4c0.1-0.1,0.2-0.2,0.4-0.3c0.2-0.1,0.3-0.2,0.5-0.3c0.1-0.1,0.3-0.2,0.4-0.2
				c0.2-0.1,0.3-0.2,0.5-0.3c0.1-0.1,0.3-0.1,0.4-0.2c0.2-0.1,0.4-0.1,0.6-0.2c0.1-0.1,0.3-0.1,0.4-0.1c0.2-0.1,0.4-0.1,0.6-0.2
				c0.1,0,0.3-0.1,0.4-0.1c0.2,0,0.5-0.1,0.7-0.1c0.1,0,0.2,0,0.3-0.1c0.4,0,0.7-0.1,1.1-0.1c0.3,0,0.6,0,0.9,0c0.1,0,0.2,0,0.3,0
				c0.2,0,0.5,0.1,0.7,0.1c0.1,0,0.1,0,0.2,0c0.3,0.1,0.6,0.1,0.9,0.2c0.1,0,0.1,0,0.2,0.1c0.2,0.1,0.5,0.2,0.7,0.3
				c0.1,0,0.2,0.1,0.2,0.1c0,0,0,0,0,0c0.8,0.4,1.6,0.9,2.2,1.6l21.3,21.2c0,0,0.1-0.1,0.1-0.1c0.1-0.1,0.2-0.3,0.4-0.4
				c0.2-0.2,0.4-0.4,0.5-0.7c0.1-0.2,0.2-0.3,0.3-0.5c0.2-0.2,0.3-0.4,0.5-0.7c0.1-0.2,0.2-0.3,0.3-0.5c0.1-0.2,0.3-0.5,0.4-0.7
				c0.1-0.2,0.2-0.4,0.2-0.5c0.1-0.2,0.2-0.5,0.3-0.8c0.1-0.2,0.1-0.4,0.2-0.6c0.1-0.3,0.2-0.5,0.2-0.8c0-0.2,0.1-0.4,0.1-0.5
				c0.1-0.3,0.1-0.6,0.2-0.9c0-0.2,0.1-0.3,0.1-0.5c0-0.5,0.1-0.9,0.1-1.4c0-0.3,0-0.7,0-1c0-0.1,0-0.2,0-0.3c0-0.2,0-0.4-0.1-0.7
				c0-0.1,0-0.2-0.1-0.4c0-0.2-0.1-0.4-0.1-0.6c0-0.1-0.1-0.3-0.1-0.4c0-0.2-0.1-0.4-0.1-0.6c0-0.1-0.1-0.3-0.1-0.4
				c-0.1-0.2-0.1-0.4-0.2-0.5c0-0.1-0.1-0.3-0.2-0.4c-0.1-0.2-0.1-0.4-0.2-0.5C85,25.2,85,25.1,84.9,25c-0.1-0.2-0.2-0.4-0.3-0.5
				c-0.1-0.2-0.2-0.4-0.3-0.6c-0.1-0.1-0.1-0.2-0.2-0.2L66.4,5.9C63.2,2.7,58.6,1.7,54.4,3.4z"/>
		</g>
	</g>
</g>
</svg>
