<?xml version="1.0" encoding="utf-8"?>
<!-- Generator: Adobe Illustrator 27.1.0, SVG Export Plug-In . SVG Version: 6.00 Build 0)  -->
<svg version="1.1" id="Capa_2_00000160897696942887474960000000397689375678537655_"
	 xmlns="http://www.w3.org/2000/svg" xmlns:xlink="http://www.w3.org/1999/xlink" x="0px" y="0px" viewBox="0 0 209.6 322.2"
	 style="enable-background:new 0 0 209.6 322.2;" xml:space="preserve">
<style type="text/css">
	.st0{fill:#FFFFFF;}
</style>
<g id="Capa_2-2">
	<g>
		<path class="st0" d="M41.4,322.2h126.9c22.8,0,41.4-18.4,41.4-40.9V40.9c0-22.6-18.6-40.9-41.4-40.9H41.4C18.5,0,0,18.4,0,40.9
			v240.4C0,303.9,18.5,322.2,41.4,322.2L41.4,322.2z M3.5,40.9c0-20.6,17-37.4,37.9-37.4h126.9c20.9,0,37.9,16.8,37.9,37.4v240.4
			c0,20.6-17,37.4-37.9,37.4H41.4c-20.9,0-37.8-16.8-37.8-37.4C3.5,281.3,3.5,40.9,3.5,40.9z"/>
		<g>
			<path class="st0" d="M46.6,210.5c-3,3-4.6,7-4.6,11.2s1.6,8.2,4.6,11.2l27.5,27.5c0.1,0.1,0.3,0.2,0.4,0.3
				c0.1,0.1,0.2,0.2,0.3,0.2c0.1,0.1,0.3,0.2,0.4,0.2c0.1,0.1,0.2,0.1,0.4,0.2c0.1,0.1,0.3,0.1,0.4,0.2c0.1,0.1,0.3,0.1,0.4,0.2
				c0.2,0.1,0.3,0.1,0.4,0.2c0.1,0,0.3,0.1,0.4,0.1c0.2,0,0.3,0.1,0.5,0.1c0.1,0,0.3,0.1,0.4,0.1c0.2,0,0.3,0.1,0.5,0.1
				c0.1,0,0.2,0,0.4,0.1c0.2,0,0.4,0,0.6,0.1c0.1,0,0.2,0,0.3,0c0.3,0,0.6,0,0.9,0c0.4,0,0.8,0,1.1,0c0.1,0,0.2,0,0.4,0
				c0.2,0,0.5-0.1,0.7-0.1c0.1,0,0.3-0.1,0.4-0.1c0.2,0,0.4-0.1,0.6-0.1c0.2,0,0.3-0.1,0.4-0.1c0.2-0.1,0.4-0.1,0.6-0.2
				c0.2-0.1,0.3-0.1,0.4-0.2c0.2-0.1,0.4-0.2,0.5-0.2c0.1-0.1,0.3-0.1,0.4-0.2c0.2-0.1,0.3-0.2,0.5-0.3c0.1-0.1,0.3-0.2,0.4-0.3
				c0.2-0.1,0.3-0.2,0.5-0.3c0.1-0.1,0.2-0.2,0.4-0.3c0.1-0.1,0.3-0.2,0.4-0.4c0.1-0.1,0.2-0.2,0.3-0.3c0.1-0.1,0.3-0.3,0.4-0.4
				c0.1-0.1,0.2-0.2,0.3-0.4c0.1-0.1,0.2-0.3,0.3-0.4c0.1-0.1,0.2-0.3,0.3-0.4c0.1-0.1,0.2-0.3,0.3-0.5c0.1-0.1,0.2-0.3,0.2-0.4
				c0.1-0.2,0.2-0.3,0.3-0.5c0.1-0.1,0.2-0.3,0.2-0.4c0.1-0.2,0.2-0.3,0.2-0.5c0.1-0.2,0.1-0.3,0.2-0.5c0.1-0.2,0.1-0.4,0.2-0.6
				c0.1-0.2,0.1-0.3,0.1-0.5c0-0.2,0.1-0.4,0.1-0.6c0-0.2,0.1-0.3,0.1-0.5c0-0.1,0-0.1,0-0.2l-30.7-30.7l0,0
				c-0.1-0.1-0.1-0.1-0.2-0.2c-0.2-0.2-0.4-0.5-0.6-0.7c-0.3-0.4-0.6-0.7-0.8-1.1c-0.2-0.2-0.4-0.5-0.5-0.8
				c-0.2-0.4-0.5-0.8-0.7-1.1c-0.2-0.3-0.3-0.5-0.5-0.8c-0.2-0.4-0.4-0.8-0.6-1.2c-0.1-0.3-0.2-0.5-0.4-0.8
				c-0.2-0.4-0.3-0.9-0.5-1.3c-0.1-0.3-0.2-0.5-0.3-0.8c-0.2-0.5-0.3-0.9-0.4-1.4c-0.1-0.3-0.1-0.5-0.2-0.8
				c-0.1-0.5-0.2-1.1-0.3-1.6c0-0.2-0.1-0.4-0.1-0.6c-0.1-0.8-0.1-1.5-0.1-2.3c0-0.2,0-0.4,0-0.5c0-0.6,0-1.2,0.1-1.8
				c0-0.3,0.1-0.7,0.2-1c0.1-0.4,0.1-0.9,0.2-1.3c0-0.1,0-0.2,0-0.2L46.6,210.5L46.6,210.5z"/>
			<path class="st0" d="M105.2,136.9c5.1,0,9.2-4.1,9.2-9.2V80.7c0,0-0.1-0.1-0.1-0.2c-2-2.2-4.8-3.4-7.8-3.4
				c-5.8,0-10.6,4.7-10.6,10.6v40C96,132.8,100.1,136.9,105.2,136.9z"/>
			<path class="st0" d="M87.5,273.7c3,3,7,4.7,11.1,4.7c2.1,0,4.2-0.4,6.2-1.2c6-2.5,9.8-8.1,9.8-14.6v-60.4c0-5.1-4.2-9.2-9.2-9.2
				c-2.9,0-5.5,1.3-7.3,3.6c-1.3,1.6-2,3.6-2,5.7v53.9l0,0c0,0.1-0.1,0.3-0.1,0.4c-0.1,0.2-0.1,0.3-0.2,0.5
				c-0.1,0.3-0.2,0.5-0.3,0.8c-0.1,0.1-0.1,0.3-0.2,0.4c-0.2,0.4-0.3,0.7-0.6,1c0,0-0.1,0.1-0.1,0.1c-0.2,0.4-0.5,0.7-0.7,1.1
				c-0.1,0.1-0.2,0.2-0.2,0.3c-0.2,0.2-0.4,0.5-0.6,0.7c-0.1,0.1-0.2,0.2-0.3,0.4c-0.2,0.2-0.4,0.4-0.6,0.6
				c-0.1,0.1-0.2,0.2-0.4,0.3c-0.2,0.2-0.4,0.4-0.6,0.5c-0.1,0.1-0.2,0.2-0.4,0.3c-0.3,0.2-0.5,0.4-0.8,0.6
				c-0.1,0.1-0.2,0.1-0.3,0.2c-0.4,0.2-0.8,0.5-1.1,0.7c-0.1,0-0.2,0.1-0.3,0.1c-0.3,0.1-0.6,0.3-0.9,0.4c-0.1,0.1-0.3,0.1-0.4,0.2
				c-0.3,0.1-0.5,0.2-0.8,0.3c-0.2,0-0.3,0.1-0.5,0.1c-0.3,0.1-0.6,0.1-0.8,0.2c-0.2,0-0.3,0.1-0.5,0.1c-0.3,0.1-0.6,0.1-0.9,0.1
				c-0.2,0-0.3,0-0.4,0c-0.5,0-0.9,0.1-1.4,0.1c-0.3,0-0.7,0-1.1,0L87.5,273.7L87.5,273.7z"/>
			<path class="st0" d="M146.7,110.5l-81.9,81.9l0,0l0,0c-0.4,0.4-0.9,0.9-1.3,1.4c-0.1,0.1-0.2,0.2-0.2,0.3
				c-0.3,0.4-0.6,0.8-0.9,1.2c-2.1,3.1-3.2,6.8-3.2,10.7c0,0.1,0,0.2,0,0.4c0,0.5,0,1,0.1,1.5c0,0.3,0.1,0.5,0.1,0.8
				c0,0.4,0.1,0.8,0.2,1.1c0.1,0.3,0.1,0.5,0.2,0.8c0.1,0.4,0.2,0.7,0.3,1c0.1,0.3,0.2,0.5,0.3,0.8c0.1,0.3,0.2,0.7,0.4,1
				c0.1,0.3,0.2,0.5,0.3,0.8c0.2,0.3,0.3,0.6,0.5,0.9c0.1,0.2,0.3,0.5,0.4,0.7c0.2,0.3,0.4,0.6,0.6,0.9c0.2,0.2,0.3,0.4,0.5,0.7
				c0.2,0.3,0.5,0.6,0.8,0.9c0.2,0.2,0.3,0.4,0.4,0.5c0,0,0.1,0.1,0.1,0.1l98.8-98.8c3-3,4.6-6.9,4.6-11.1c0-4.2-1.6-8.1-4.6-11.1
				l-9-9c0,0.1,0,0.2,0,0.3c0.1,0.4,0.1,0.9,0.2,1.3c0,0.2,0.1,0.4,0.1,0.6c0.1,0.6,0.1,1.3,0.1,1.9c0,0.8-0.1,1.6-0.1,2.4
				c0,0.3-0.1,0.5-0.1,0.8c-0.1,0.5-0.1,1.1-0.3,1.6c-0.1,0.3-0.2,0.6-0.2,0.9c-0.1,0.5-0.2,0.9-0.4,1.4c-0.1,0.3-0.2,0.6-0.4,0.9
				c-0.2,0.4-0.3,0.9-0.5,1.3c-0.1,0.3-0.3,0.6-0.5,0.9c-0.2,0.4-0.4,0.8-0.6,1.2c-0.2,0.3-0.4,0.6-0.6,0.9
				c-0.2,0.4-0.5,0.8-0.7,1.1c-0.2,0.3-0.4,0.6-0.7,0.8c-0.3,0.3-0.5,0.7-0.8,1c-0.2,0.3-0.5,0.5-0.8,0.8c-0.2,0.2-0.5,0.5-0.7,0.7
				L146.7,110.5L146.7,110.5z"/>
			<path class="st0" d="M106.1,54.5C99.9,56.9,96,63.1,96,69.8v8.6c0.1-0.1,0.2-0.2,0.3-0.3c0.2-0.2,0.4-0.4,0.6-0.6
				c0.2-0.1,0.3-0.3,0.5-0.4c0.2-0.2,0.4-0.3,0.6-0.5c0.2-0.1,0.3-0.2,0.5-0.4c0.2-0.2,0.4-0.3,0.7-0.4c0.2-0.1,0.3-0.2,0.5-0.3
				c0.2-0.1,0.5-0.2,0.7-0.4c0.2-0.1,0.4-0.2,0.6-0.3c0.2-0.1,0.5-0.2,0.8-0.3c0.2-0.1,0.4-0.2,0.6-0.2c0.3-0.1,0.6-0.2,0.8-0.2
				c0.2-0.1,0.4-0.1,0.6-0.1c0.3-0.1,0.6-0.1,1-0.2c0.2,0,0.3-0.1,0.5-0.1c0.5-0.1,1-0.1,1.5-0.1c0.4,0,0.9,0,1.3,0.1
				c0.1,0,0.2,0,0.4,0c0.3,0,0.7,0.1,1,0.2c0.1,0,0.2,0,0.3,0.1c0.4,0.1,0.8,0.2,1.3,0.3c0.1,0,0.2,0.1,0.3,0.1
				c0.3,0.1,0.7,0.2,1,0.4c0.1,0.1,0.2,0.1,0.3,0.1c0,0,0,0,0,0c1.2,0.5,2.2,1.3,3.1,2.2l29.8,29.6c0.1-0.1,0.1-0.1,0.2-0.2
				c0.2-0.2,0.4-0.4,0.5-0.6c0.3-0.3,0.5-0.6,0.8-0.9c0.2-0.2,0.3-0.4,0.5-0.7c0.2-0.3,0.4-0.6,0.6-0.9c0.1-0.2,0.3-0.5,0.4-0.7
				c0.2-0.3,0.4-0.7,0.5-1c0.1-0.2,0.2-0.5,0.4-0.8c0.1-0.3,0.3-0.7,0.4-1.1c0.1-0.3,0.2-0.5,0.3-0.8c0.1-0.4,0.2-0.8,0.3-1.1
				c0.1-0.2,0.1-0.5,0.2-0.8c0.1-0.4,0.1-0.9,0.2-1.3c0-0.2,0.1-0.4,0.1-0.7c0.1-0.7,0.1-1.3,0.1-2c0-0.5,0-0.9-0.1-1.4
				c0-0.2,0-0.3-0.1-0.4c0-0.3-0.1-0.6-0.1-0.9c0-0.2-0.1-0.3-0.1-0.5c-0.1-0.3-0.1-0.6-0.1-0.8c0-0.2-0.1-0.4-0.1-0.5
				c-0.1-0.3-0.1-0.5-0.2-0.8c-0.1-0.2-0.1-0.4-0.2-0.5c-0.1-0.3-0.2-0.5-0.3-0.8c-0.1-0.2-0.1-0.3-0.2-0.5
				c-0.1-0.2-0.2-0.5-0.3-0.8c-0.1-0.2-0.2-0.3-0.2-0.5c-0.1-0.2-0.2-0.5-0.4-0.7c-0.1-0.3-0.3-0.5-0.5-0.8
				c-0.1-0.1-0.1-0.2-0.2-0.3L123,58.1C118.5,53.5,112,52.2,106.1,54.5L106.1,54.5z"/>
		</g>
	</g>
</g>
</svg>
